G04 #@! TF.GenerationSoftware,KiCad,Pcbnew,(5.1.0-0)*
G04 #@! TF.CreationDate,2019-04-30T21:56:08-04:00*
G04 #@! TF.ProjectId,The Ear Tool,54686520-4561-4722-9054-6f6f6c2e6b69,1.3*
G04 #@! TF.SameCoordinates,Original*
G04 #@! TF.FileFunction,Soldermask,Bot*
G04 #@! TF.FilePolarity,Negative*
%FSLAX46Y46*%
G04 Gerber Fmt 4.6, Leading zero omitted, Abs format (unit mm)*
G04 Created by KiCad (PCBNEW (5.1.0-0)) date 2019-04-30 21:56:08*
%MOMM*%
%LPD*%
G04 APERTURE LIST*
%ADD10R,2.300000X2.400000*%
%ADD11C,2.300000*%
%ADD12R,3.400000X4.400000*%
%ADD13C,2.000000*%
%ADD14C,6.400000*%
%ADD15C,2.400000*%
%ADD16O,2.600000X4.100000*%
%ADD17R,3.100000X2.200000*%
%ADD18R,2.200000X3.100000*%
%ADD19C,1.600000*%
%ADD20R,3.900000X2.000000*%
%ADD21R,0.908000X1.543000*%
%ADD22R,2.900000X2.900000*%
%ADD23C,2.900000*%
%ADD24R,1.900000X1.650000*%
%ADD25R,1.900000X1.700000*%
G04 APERTURE END LIST*
D10*
X146000000Y-45000000D03*
D11*
X148540000Y-45000000D03*
D12*
X157540000Y-117000000D03*
X152460000Y-117000000D03*
X152460000Y-80000000D03*
X157540000Y-80000000D03*
D13*
X152750000Y-65000000D03*
X152750000Y-62000000D03*
X152750000Y-59000000D03*
X141750000Y-65000000D03*
X141750000Y-62000000D03*
X141750000Y-59000000D03*
D14*
X109300000Y-42000000D03*
X157400000Y-42000000D03*
X109300000Y-140300000D03*
X157400000Y-140300000D03*
D15*
X113500000Y-68500000D03*
X116000000Y-68500000D03*
X118500000Y-68500000D03*
D16*
X110750000Y-61000000D03*
X121250000Y-61000000D03*
D17*
X133500000Y-140500000D03*
D18*
X128500000Y-135500000D03*
X131000000Y-135500000D03*
X136000000Y-135500000D03*
X138500000Y-135500000D03*
D19*
X128500000Y-140500000D03*
X133500000Y-135500000D03*
X138500000Y-140500000D03*
X138500000Y-142750000D03*
X128500000Y-142750000D03*
D20*
X144300000Y-137000000D03*
X149700000Y-137000000D03*
D21*
X124905000Y-133825000D03*
X123635000Y-133825000D03*
X122365000Y-133825000D03*
X121095000Y-133825000D03*
X121095000Y-140175000D03*
X122365000Y-140175000D03*
X123635000Y-140175000D03*
X124905000Y-140175000D03*
D22*
X131000000Y-43000000D03*
D23*
X136080000Y-43000000D03*
D13*
X130750000Y-65000000D03*
X130750000Y-62000000D03*
X130750000Y-59000000D03*
D24*
X115750000Y-137000000D03*
X118250000Y-137000000D03*
D25*
X115650000Y-133000000D03*
X118350000Y-133000000D03*
X118350000Y-141000000D03*
X115650000Y-141000000D03*
M02*
