M48
; DRILL file {KiCad (5.1.0-0)} date Tuesday, April 30, 2019 at 09:55:54 PM
; FORMAT={-:-/ absolute / inch / decimal}
; #@! TF.CreationDate,2019-04-30T21:55:54-04:00
; #@! TF.GenerationSoftware,Kicad,Pcbnew,(5.1.0-0)
; #@! TF.FileFunction,Plated,1,2,PTH
FMAT,2
INCH
T1C0.0157
T2C0.0354
T3C0.0394
T4C0.0394
T5C0.0512
T6C0.1181
%
G90
G05
T1
X4.685Y-2.2835
T2
X6.0138Y-2.3228
X6.0138Y-2.4409
X6.0138Y-2.5591
X5.5807Y-2.3228
X5.5807Y-2.4409
X5.5807Y-2.5591
X5.1476Y-2.3228
X5.1476Y-2.4409
X5.1476Y-2.5591
T3
X4.4685Y-2.6969
X4.5669Y-2.6969
X4.6654Y-2.6969
T4
X5.748Y-1.7717
X5.848Y-1.7717
T5
X5.1575Y-1.6929
X5.3575Y-1.6929
T6
X4.3031Y-1.6535
X6.1969Y-1.6535
X4.3031Y-5.5236
X6.1969Y-5.5236
T3
G00X5.0591Y-5.3524
M15
G01X5.0591Y-5.3169
M16
G05
G00X5.1575Y-5.3524
M15
G01X5.1575Y-5.3169
M16
G05
G00X5.2736Y-5.5315
M15
G01X5.2382Y-5.5315
M16
G05
G00X5.3543Y-5.3524
M15
G01X5.3543Y-5.3169
M16
G05
G00X5.4528Y-5.3524
M15
G01X5.4528Y-5.3169
M16
G05
G00X4.3602Y-2.372
M15
G01X4.3602Y-2.4311
M16
G05
G00X4.7736Y-2.372
M15
G01X4.7736Y-2.4311
M16
G05
T0
M30
