G04 #@! TF.GenerationSoftware,KiCad,Pcbnew,(5.1.0-0)*
G04 #@! TF.CreationDate,2019-04-30T21:56:07-04:00*
G04 #@! TF.ProjectId,The Ear Tool,54686520-4561-4722-9054-6f6f6c2e6b69,1.3*
G04 #@! TF.SameCoordinates,Original*
G04 #@! TF.FileFunction,Copper,L2,Bot*
G04 #@! TF.FilePolarity,Positive*
%FSLAX46Y46*%
G04 Gerber Fmt 4.6, Leading zero omitted, Abs format (unit mm)*
G04 Created by KiCad (PCBNEW (5.1.0-0)) date 2019-04-30 21:56:07*
%MOMM*%
%LPD*%
G04 APERTURE LIST*
%ADD10R,1.900000X2.000000*%
%ADD11C,1.900000*%
%ADD12R,3.000000X4.000000*%
%ADD13C,1.600000*%
%ADD14C,6.000000*%
%ADD15C,2.000000*%
%ADD16O,2.200000X3.700000*%
%ADD17R,2.700000X1.800000*%
%ADD18R,1.800000X2.700000*%
%ADD19R,3.500000X1.600000*%
%ADD20R,0.508000X1.143000*%
%ADD21R,2.500000X2.500000*%
%ADD22C,2.500000*%
%ADD23R,1.500000X1.250000*%
%ADD24R,1.500000X1.300000*%
%ADD25C,0.600000*%
%ADD26C,0.350000*%
%ADD27C,0.254000*%
G04 APERTURE END LIST*
D10*
X146000000Y-45000000D03*
D11*
X148540000Y-45000000D03*
D12*
X157540000Y-117000000D03*
X152460000Y-117000000D03*
X152460000Y-80000000D03*
X157540000Y-80000000D03*
D13*
X152750000Y-65000000D03*
X152750000Y-62000000D03*
X152750000Y-59000000D03*
X141750000Y-65000000D03*
X141750000Y-62000000D03*
X141750000Y-59000000D03*
D14*
X109300000Y-42000000D03*
X157400000Y-42000000D03*
X109300000Y-140300000D03*
X157400000Y-140300000D03*
D15*
X113500000Y-68500000D03*
X116000000Y-68500000D03*
X118500000Y-68500000D03*
D16*
X110750000Y-61000000D03*
X121250000Y-61000000D03*
D17*
X133500000Y-140500000D03*
D18*
X128500000Y-135500000D03*
X131000000Y-135500000D03*
X136000000Y-135500000D03*
X138500000Y-135500000D03*
D19*
X144300000Y-137000000D03*
X149700000Y-137000000D03*
D20*
X124905000Y-133825000D03*
X123635000Y-133825000D03*
X122365000Y-133825000D03*
X121095000Y-133825000D03*
X121095000Y-140175000D03*
X122365000Y-140175000D03*
X123635000Y-140175000D03*
X124905000Y-140175000D03*
D21*
X131000000Y-43000000D03*
D22*
X136080000Y-43000000D03*
D13*
X130750000Y-65000000D03*
X130750000Y-62000000D03*
X130750000Y-59000000D03*
D23*
X115750000Y-137000000D03*
X118250000Y-137000000D03*
D24*
X115650000Y-133000000D03*
X118350000Y-133000000D03*
X118350000Y-141000000D03*
X115650000Y-141000000D03*
D25*
X119000000Y-58000000D03*
D26*
X115750000Y-137000000D02*
X115750000Y-138000300D01*
X124905000Y-140175000D02*
X124905000Y-139228200D01*
X123677100Y-138000300D02*
X124905000Y-139228200D01*
X115750000Y-138000300D02*
X123677100Y-138000300D01*
X117224600Y-75525400D02*
X130750000Y-62000000D01*
X117224600Y-134974300D02*
X117224600Y-75525400D01*
X118250000Y-135999700D02*
X117224600Y-134974300D01*
X118250000Y-137000000D02*
X118250000Y-135999700D01*
X121095000Y-133825000D02*
X121095000Y-134771800D01*
X144300000Y-137000000D02*
X142174700Y-137000000D01*
X141384700Y-137790000D02*
X142174700Y-137000000D01*
X124958100Y-137790000D02*
X141384700Y-137790000D01*
X123067000Y-135898900D02*
X124958100Y-137790000D01*
X122222100Y-135898900D02*
X123067000Y-135898900D01*
X121095000Y-134771800D02*
X122222100Y-135898900D01*
X149700000Y-137000000D02*
X149700000Y-135824700D01*
X137099400Y-137225300D02*
X128500000Y-137225300D01*
X138662400Y-135662300D02*
X137099400Y-137225300D01*
X138824700Y-135824700D02*
X138662400Y-135662300D01*
X149700000Y-135824700D02*
X138824700Y-135824700D01*
X138662400Y-135662300D02*
X138500000Y-135500000D01*
X128500000Y-135500000D02*
X128500000Y-137225300D01*
X146000000Y-45000000D02*
X144674700Y-45000000D01*
X120894700Y-139974700D02*
X115650000Y-139974700D01*
X121095000Y-140175000D02*
X120894700Y-139974700D01*
X115650000Y-141000000D02*
X115650000Y-139974700D01*
X115650000Y-141000000D02*
X115650000Y-142025300D01*
X142674700Y-43000000D02*
X136080000Y-43000000D01*
X144674700Y-45000000D02*
X142674700Y-43000000D01*
X157540000Y-133188100D02*
X157540000Y-117000000D01*
X146950100Y-143778000D02*
X157540000Y-133188100D01*
X117402700Y-143778000D02*
X146950100Y-143778000D01*
X115650000Y-142025300D02*
X117402700Y-143778000D01*
X157540000Y-117000000D02*
X157540000Y-80000000D01*
X113500000Y-65580000D02*
X113500000Y-68500000D01*
X136080000Y-43000000D02*
X113500000Y-65580000D01*
X147325400Y-43674600D02*
X146000000Y-45000000D01*
X149161000Y-43674600D02*
X147325400Y-43674600D01*
X149899500Y-44413100D02*
X149161000Y-43674600D01*
X149899500Y-57816100D02*
X149899500Y-44413100D01*
X153228600Y-57816100D02*
X149899500Y-57816100D01*
X157540000Y-62127500D02*
X153228600Y-57816100D01*
X157540000Y-80000000D02*
X157540000Y-62127500D01*
X142933900Y-57816100D02*
X141750000Y-59000000D01*
X149899500Y-57816100D02*
X142933900Y-57816100D01*
X146201100Y-47338900D02*
X148540000Y-45000000D01*
X140737400Y-47338900D02*
X146201100Y-47338900D01*
X129459300Y-58617000D02*
X140737400Y-47338900D01*
X129459300Y-60530600D02*
X129459300Y-58617000D01*
X115650000Y-74339900D02*
X129459300Y-60530600D01*
X115650000Y-133000000D02*
X115650000Y-74339900D01*
X152460000Y-117000000D02*
X152450000Y-120550000D01*
X134998800Y-136501200D02*
X136000000Y-135500000D01*
X132001200Y-136501200D02*
X134998800Y-136501200D01*
X131000000Y-135500000D02*
X132001200Y-136501200D01*
X136000000Y-131584700D02*
X152450000Y-120550000D01*
X136000000Y-135500000D02*
X136000000Y-131584700D01*
X123635000Y-140175000D02*
X123635000Y-139228200D01*
X114507300Y-69992700D02*
X116000000Y-68500000D01*
X114507300Y-137663500D02*
X114507300Y-69992700D01*
X116072000Y-139228200D02*
X114507300Y-137663500D01*
X123635000Y-139228200D02*
X116072000Y-139228200D01*
X151551900Y-76716600D02*
X152460000Y-77624700D01*
X151551900Y-63198100D02*
X151551900Y-76716600D01*
X152750000Y-62000000D02*
X151551900Y-63198100D01*
X152460000Y-80000000D02*
X152460000Y-77624700D01*
X151250000Y-60500000D02*
X152750000Y-59000000D01*
X141551300Y-60500000D02*
X151250000Y-60500000D01*
X139275500Y-62775800D02*
X141551300Y-60500000D01*
X139275500Y-94971200D02*
X139275500Y-62775800D01*
X119800000Y-113100000D02*
X139275500Y-94971200D01*
X119850000Y-122550000D02*
X119800000Y-113100000D01*
X125550000Y-127150000D02*
X119850000Y-122550000D01*
X125534400Y-134602000D02*
X125550000Y-127150000D01*
X125364600Y-134771800D02*
X125534400Y-134602000D01*
X122365000Y-134771800D02*
X125364600Y-134771800D01*
X122365000Y-133825000D02*
X122365000Y-134771800D01*
X119597100Y-132878200D02*
X122365000Y-132878200D01*
X119475300Y-133000000D02*
X119597100Y-132878200D01*
X118350000Y-133000000D02*
X119475300Y-133000000D01*
X122365000Y-133825000D02*
X122365000Y-132878200D01*
X143574600Y-63824600D02*
X141750000Y-62000000D01*
X143574600Y-91490000D02*
X143574600Y-63824600D01*
X154373900Y-102289300D02*
X143574600Y-91490000D01*
X154373900Y-135455600D02*
X154373900Y-102289300D01*
X150604800Y-139224700D02*
X154373900Y-135455600D01*
X127474300Y-139224700D02*
X150604800Y-139224700D01*
X125577200Y-141121800D02*
X127474300Y-139224700D01*
X122365000Y-141121800D02*
X125577200Y-141121800D01*
X122365000Y-140175000D02*
X122365000Y-141121800D01*
X118350000Y-141000000D02*
X119475300Y-141000000D01*
X133500000Y-140500000D02*
X131774700Y-140500000D01*
X130589800Y-141684900D02*
X131774700Y-140500000D01*
X120160200Y-141684900D02*
X130589800Y-141684900D01*
X119475300Y-141000000D02*
X120160200Y-141684900D01*
X131000000Y-46000000D02*
X131000000Y-43000000D01*
X119000000Y-58000000D02*
X131000000Y-46000000D01*
X124905000Y-130071000D02*
X124905000Y-133825000D01*
X118550000Y-125100000D02*
X124905000Y-130071000D01*
X118550000Y-112850000D02*
X118550000Y-125100000D01*
X131900000Y-99850000D02*
X118550000Y-112850000D01*
X131947400Y-60197400D02*
X131900000Y-99850000D01*
X130750000Y-59000000D02*
X131947400Y-60197400D01*
D27*
G36*
X161290001Y-38265115D02*
G01*
X161290000Y-38265124D01*
X161290001Y-143965114D01*
X161290000Y-143965124D01*
X161290000Y-144290000D01*
X105010000Y-144290000D01*
X105010000Y-139941984D01*
X105665000Y-139941984D01*
X105665000Y-140658016D01*
X105804691Y-141360290D01*
X106078705Y-142021818D01*
X106476511Y-142617177D01*
X106982823Y-143123489D01*
X107578182Y-143521295D01*
X108239710Y-143795309D01*
X108941984Y-143935000D01*
X109658016Y-143935000D01*
X110360290Y-143795309D01*
X111021818Y-143521295D01*
X111617177Y-143123489D01*
X112123489Y-142617177D01*
X112521295Y-142021818D01*
X112675307Y-141650000D01*
X114261928Y-141650000D01*
X114274188Y-141774482D01*
X114310498Y-141894180D01*
X114369463Y-142004494D01*
X114448815Y-142101185D01*
X114545506Y-142180537D01*
X114655820Y-142239502D01*
X114775518Y-142275812D01*
X114900000Y-142288072D01*
X115364250Y-142285000D01*
X115523000Y-142126250D01*
X115523000Y-141127000D01*
X114423750Y-141127000D01*
X114265000Y-141285750D01*
X114261928Y-141650000D01*
X112675307Y-141650000D01*
X112795309Y-141360290D01*
X112935000Y-140658016D01*
X112935000Y-139941984D01*
X112795309Y-139239710D01*
X112521295Y-138578182D01*
X112123489Y-137982823D01*
X111617177Y-137476511D01*
X111021818Y-137078705D01*
X110360290Y-136804691D01*
X109658016Y-136665000D01*
X108941984Y-136665000D01*
X108239710Y-136804691D01*
X107578182Y-137078705D01*
X106982823Y-137476511D01*
X106476511Y-137982823D01*
X106078705Y-138578182D01*
X105804691Y-139239710D01*
X105665000Y-139941984D01*
X105010000Y-139941984D01*
X105010000Y-69635413D01*
X112544192Y-69635413D01*
X112639956Y-69899814D01*
X112929571Y-70040704D01*
X113241108Y-70122384D01*
X113562595Y-70141718D01*
X113697301Y-70123245D01*
X113697300Y-137623712D01*
X113693381Y-137663500D01*
X113697300Y-137703288D01*
X113697300Y-137703290D01*
X113709020Y-137822287D01*
X113755337Y-137974972D01*
X113787583Y-138035300D01*
X113830551Y-138115689D01*
X113862003Y-138154013D01*
X113931772Y-138239028D01*
X113962687Y-138264399D01*
X115471105Y-139772818D01*
X115496472Y-139803728D01*
X115522998Y-139825497D01*
X115522998Y-139873748D01*
X115364250Y-139715000D01*
X114900000Y-139711928D01*
X114775518Y-139724188D01*
X114655820Y-139760498D01*
X114545506Y-139819463D01*
X114448815Y-139898815D01*
X114369463Y-139995506D01*
X114310498Y-140105820D01*
X114274188Y-140225518D01*
X114261928Y-140350000D01*
X114265000Y-140714250D01*
X114423750Y-140873000D01*
X115523000Y-140873000D01*
X115523000Y-140853000D01*
X115777000Y-140853000D01*
X115777000Y-140873000D01*
X115797000Y-140873000D01*
X115797000Y-141127000D01*
X115777000Y-141127000D01*
X115777000Y-142126250D01*
X115935750Y-142285000D01*
X116400000Y-142288072D01*
X116524482Y-142275812D01*
X116644180Y-142239502D01*
X116754494Y-142180537D01*
X116851185Y-142101185D01*
X116930537Y-142004494D01*
X116989502Y-141894180D01*
X117000000Y-141859573D01*
X117010498Y-141894180D01*
X117069463Y-142004494D01*
X117148815Y-142101185D01*
X117245506Y-142180537D01*
X117355820Y-142239502D01*
X117475518Y-142275812D01*
X117600000Y-142288072D01*
X119100000Y-142288072D01*
X119224482Y-142275812D01*
X119344180Y-142239502D01*
X119454494Y-142180537D01*
X119485159Y-142155371D01*
X119559305Y-142229518D01*
X119584672Y-142260428D01*
X119615580Y-142285793D01*
X119708010Y-142361649D01*
X119783224Y-142401851D01*
X119848727Y-142436863D01*
X120001412Y-142483180D01*
X120120409Y-142494900D01*
X120120412Y-142494900D01*
X120160200Y-142498819D01*
X120199988Y-142494900D01*
X127291547Y-142494900D01*
X127265000Y-142628363D01*
X127265000Y-142871637D01*
X127312460Y-143110236D01*
X127405557Y-143334992D01*
X127540713Y-143537267D01*
X127712733Y-143709287D01*
X127915008Y-143844443D01*
X128139764Y-143937540D01*
X128378363Y-143985000D01*
X128621637Y-143985000D01*
X128860236Y-143937540D01*
X129084992Y-143844443D01*
X129287267Y-143709287D01*
X129459287Y-143537267D01*
X129594443Y-143334992D01*
X129687540Y-143110236D01*
X129735000Y-142871637D01*
X129735000Y-142628363D01*
X129708453Y-142494900D01*
X130550012Y-142494900D01*
X130589800Y-142498819D01*
X130629588Y-142494900D01*
X130629591Y-142494900D01*
X130748588Y-142483180D01*
X130901273Y-142436863D01*
X131041989Y-142361649D01*
X131165328Y-142260428D01*
X131190699Y-142229513D01*
X131640313Y-141779900D01*
X131698815Y-141851185D01*
X131795506Y-141930537D01*
X131905820Y-141989502D01*
X132025518Y-142025812D01*
X132150000Y-142038072D01*
X134850000Y-142038072D01*
X134974482Y-142025812D01*
X135094180Y-141989502D01*
X135204494Y-141930537D01*
X135301185Y-141851185D01*
X135380537Y-141754494D01*
X135439502Y-141644180D01*
X135475812Y-141524482D01*
X135488072Y-141400000D01*
X135488072Y-140034700D01*
X137355979Y-140034700D01*
X137312460Y-140139764D01*
X137265000Y-140378363D01*
X137265000Y-140621637D01*
X137312460Y-140860236D01*
X137405557Y-141084992D01*
X137540713Y-141287267D01*
X137712733Y-141459287D01*
X137915008Y-141594443D01*
X137988779Y-141625000D01*
X137915008Y-141655557D01*
X137712733Y-141790713D01*
X137540713Y-141962733D01*
X137405557Y-142165008D01*
X137312460Y-142389764D01*
X137265000Y-142628363D01*
X137265000Y-142871637D01*
X137312460Y-143110236D01*
X137405557Y-143334992D01*
X137540713Y-143537267D01*
X137712733Y-143709287D01*
X137915008Y-143844443D01*
X138139764Y-143937540D01*
X138378363Y-143985000D01*
X138621637Y-143985000D01*
X138860236Y-143937540D01*
X139084992Y-143844443D01*
X139287267Y-143709287D01*
X139459287Y-143537267D01*
X139594443Y-143334992D01*
X139687540Y-143110236D01*
X139735000Y-142871637D01*
X139735000Y-142628363D01*
X139687540Y-142389764D01*
X139594443Y-142165008D01*
X139459287Y-141962733D01*
X139287267Y-141790713D01*
X139084992Y-141655557D01*
X139011221Y-141625000D01*
X139084992Y-141594443D01*
X139287267Y-141459287D01*
X139459287Y-141287267D01*
X139594443Y-141084992D01*
X139687540Y-140860236D01*
X139735000Y-140621637D01*
X139735000Y-140378363D01*
X139687540Y-140139764D01*
X139644021Y-140034700D01*
X150565012Y-140034700D01*
X150604800Y-140038619D01*
X150644588Y-140034700D01*
X150644591Y-140034700D01*
X150763588Y-140022980D01*
X150916273Y-139976663D01*
X150981153Y-139941984D01*
X153765000Y-139941984D01*
X153765000Y-140658016D01*
X153904691Y-141360290D01*
X154178705Y-142021818D01*
X154576511Y-142617177D01*
X155082823Y-143123489D01*
X155678182Y-143521295D01*
X156339710Y-143795309D01*
X157041984Y-143935000D01*
X157758016Y-143935000D01*
X158460290Y-143795309D01*
X159121818Y-143521295D01*
X159717177Y-143123489D01*
X160223489Y-142617177D01*
X160621295Y-142021818D01*
X160895309Y-141360290D01*
X161035000Y-140658016D01*
X161035000Y-139941984D01*
X160895309Y-139239710D01*
X160621295Y-138578182D01*
X160223489Y-137982823D01*
X159717177Y-137476511D01*
X159121818Y-137078705D01*
X158460290Y-136804691D01*
X157758016Y-136665000D01*
X157041984Y-136665000D01*
X156339710Y-136804691D01*
X155678182Y-137078705D01*
X155082823Y-137476511D01*
X154576511Y-137982823D01*
X154178705Y-138578182D01*
X153904691Y-139239710D01*
X153765000Y-139941984D01*
X150981153Y-139941984D01*
X151056989Y-139901449D01*
X151180328Y-139800228D01*
X151205700Y-139769312D01*
X154918519Y-136056494D01*
X154949428Y-136031128D01*
X155011231Y-135955820D01*
X155050649Y-135907790D01*
X155114560Y-135788219D01*
X155125863Y-135767073D01*
X155172180Y-135614388D01*
X155183900Y-135495391D01*
X155183900Y-135495389D01*
X155187819Y-135455601D01*
X155183900Y-135415813D01*
X155183900Y-119000000D01*
X155401928Y-119000000D01*
X155414188Y-119124482D01*
X155450498Y-119244180D01*
X155509463Y-119354494D01*
X155588815Y-119451185D01*
X155685506Y-119530537D01*
X155795820Y-119589502D01*
X155915518Y-119625812D01*
X156040000Y-119638072D01*
X157254250Y-119635000D01*
X157413000Y-119476250D01*
X157413000Y-117127000D01*
X157667000Y-117127000D01*
X157667000Y-119476250D01*
X157825750Y-119635000D01*
X159040000Y-119638072D01*
X159164482Y-119625812D01*
X159284180Y-119589502D01*
X159394494Y-119530537D01*
X159491185Y-119451185D01*
X159570537Y-119354494D01*
X159629502Y-119244180D01*
X159665812Y-119124482D01*
X159678072Y-119000000D01*
X159675000Y-117285750D01*
X159516250Y-117127000D01*
X157667000Y-117127000D01*
X157413000Y-117127000D01*
X155563750Y-117127000D01*
X155405000Y-117285750D01*
X155401928Y-119000000D01*
X155183900Y-119000000D01*
X155183900Y-115000000D01*
X155401928Y-115000000D01*
X155405000Y-116714250D01*
X155563750Y-116873000D01*
X157413000Y-116873000D01*
X157413000Y-114523750D01*
X157667000Y-114523750D01*
X157667000Y-116873000D01*
X159516250Y-116873000D01*
X159675000Y-116714250D01*
X159678072Y-115000000D01*
X159665812Y-114875518D01*
X159629502Y-114755820D01*
X159570537Y-114645506D01*
X159491185Y-114548815D01*
X159394494Y-114469463D01*
X159284180Y-114410498D01*
X159164482Y-114374188D01*
X159040000Y-114361928D01*
X157825750Y-114365000D01*
X157667000Y-114523750D01*
X157413000Y-114523750D01*
X157254250Y-114365000D01*
X156040000Y-114361928D01*
X155915518Y-114374188D01*
X155795820Y-114410498D01*
X155685506Y-114469463D01*
X155588815Y-114548815D01*
X155509463Y-114645506D01*
X155450498Y-114755820D01*
X155414188Y-114875518D01*
X155401928Y-115000000D01*
X155183900Y-115000000D01*
X155183900Y-102329091D01*
X155187819Y-102289300D01*
X155172180Y-102130512D01*
X155125863Y-101977826D01*
X155050649Y-101837111D01*
X154974793Y-101744680D01*
X154949428Y-101713772D01*
X154918518Y-101688405D01*
X144384600Y-91154488D01*
X144384600Y-63864387D01*
X144388519Y-63824599D01*
X144384600Y-63784809D01*
X144372880Y-63665812D01*
X144326563Y-63513127D01*
X144255327Y-63379853D01*
X144251349Y-63372410D01*
X144205719Y-63316810D01*
X144150128Y-63249072D01*
X144119218Y-63223705D01*
X143160420Y-62264907D01*
X143185000Y-62141335D01*
X143185000Y-61858665D01*
X143129853Y-61581426D01*
X143021680Y-61320273D01*
X143014816Y-61310000D01*
X151210212Y-61310000D01*
X151250000Y-61313919D01*
X151289788Y-61310000D01*
X151289791Y-61310000D01*
X151408788Y-61298280D01*
X151514427Y-61266234D01*
X151478320Y-61320273D01*
X151370147Y-61581426D01*
X151315000Y-61858665D01*
X151315000Y-62141335D01*
X151339580Y-62264907D01*
X151007287Y-62597201D01*
X150976372Y-62622572D01*
X150929467Y-62679727D01*
X150875151Y-62745911D01*
X150834949Y-62821125D01*
X150799937Y-62886628D01*
X150753620Y-63039313D01*
X150742930Y-63147851D01*
X150737981Y-63198100D01*
X150741900Y-63237888D01*
X150741901Y-76676802D01*
X150737981Y-76716600D01*
X150753621Y-76875387D01*
X150799938Y-77028073D01*
X150875151Y-77168789D01*
X150930752Y-77236539D01*
X150976373Y-77292128D01*
X151007283Y-77317495D01*
X151051716Y-77361928D01*
X150960000Y-77361928D01*
X150835518Y-77374188D01*
X150715820Y-77410498D01*
X150605506Y-77469463D01*
X150508815Y-77548815D01*
X150429463Y-77645506D01*
X150370498Y-77755820D01*
X150334188Y-77875518D01*
X150321928Y-78000000D01*
X150321928Y-82000000D01*
X150334188Y-82124482D01*
X150370498Y-82244180D01*
X150429463Y-82354494D01*
X150508815Y-82451185D01*
X150605506Y-82530537D01*
X150715820Y-82589502D01*
X150835518Y-82625812D01*
X150960000Y-82638072D01*
X153960000Y-82638072D01*
X154084482Y-82625812D01*
X154204180Y-82589502D01*
X154314494Y-82530537D01*
X154411185Y-82451185D01*
X154490537Y-82354494D01*
X154549502Y-82244180D01*
X154585812Y-82124482D01*
X154598072Y-82000000D01*
X155401928Y-82000000D01*
X155414188Y-82124482D01*
X155450498Y-82244180D01*
X155509463Y-82354494D01*
X155588815Y-82451185D01*
X155685506Y-82530537D01*
X155795820Y-82589502D01*
X155915518Y-82625812D01*
X156040000Y-82638072D01*
X157254250Y-82635000D01*
X157413000Y-82476250D01*
X157413000Y-80127000D01*
X157667000Y-80127000D01*
X157667000Y-82476250D01*
X157825750Y-82635000D01*
X159040000Y-82638072D01*
X159164482Y-82625812D01*
X159284180Y-82589502D01*
X159394494Y-82530537D01*
X159491185Y-82451185D01*
X159570537Y-82354494D01*
X159629502Y-82244180D01*
X159665812Y-82124482D01*
X159678072Y-82000000D01*
X159675000Y-80285750D01*
X159516250Y-80127000D01*
X157667000Y-80127000D01*
X157413000Y-80127000D01*
X155563750Y-80127000D01*
X155405000Y-80285750D01*
X155401928Y-82000000D01*
X154598072Y-82000000D01*
X154598072Y-78000000D01*
X155401928Y-78000000D01*
X155405000Y-79714250D01*
X155563750Y-79873000D01*
X157413000Y-79873000D01*
X157413000Y-77523750D01*
X157667000Y-77523750D01*
X157667000Y-79873000D01*
X159516250Y-79873000D01*
X159675000Y-79714250D01*
X159678072Y-78000000D01*
X159665812Y-77875518D01*
X159629502Y-77755820D01*
X159570537Y-77645506D01*
X159491185Y-77548815D01*
X159394494Y-77469463D01*
X159284180Y-77410498D01*
X159164482Y-77374188D01*
X159040000Y-77361928D01*
X157825750Y-77365000D01*
X157667000Y-77523750D01*
X157413000Y-77523750D01*
X157254250Y-77365000D01*
X156040000Y-77361928D01*
X155915518Y-77374188D01*
X155795820Y-77410498D01*
X155685506Y-77469463D01*
X155588815Y-77548815D01*
X155509463Y-77645506D01*
X155450498Y-77755820D01*
X155414188Y-77875518D01*
X155401928Y-78000000D01*
X154598072Y-78000000D01*
X154585812Y-77875518D01*
X154549502Y-77755820D01*
X154490537Y-77645506D01*
X154411185Y-77548815D01*
X154314494Y-77469463D01*
X154204180Y-77410498D01*
X154084482Y-77374188D01*
X153960000Y-77361928D01*
X153226736Y-77361928D01*
X153211963Y-77313227D01*
X153176951Y-77247724D01*
X153136749Y-77172510D01*
X153091119Y-77116910D01*
X153035528Y-77049172D01*
X153004618Y-77023805D01*
X152361900Y-76381088D01*
X152361900Y-66385915D01*
X152608665Y-66435000D01*
X152891335Y-66435000D01*
X153168574Y-66379853D01*
X153429727Y-66271680D01*
X153664759Y-66114637D01*
X153864637Y-65914759D01*
X154021680Y-65679727D01*
X154129853Y-65418574D01*
X154185000Y-65141335D01*
X154185000Y-64858665D01*
X154129853Y-64581426D01*
X154021680Y-64320273D01*
X153864637Y-64085241D01*
X153664759Y-63885363D01*
X153429727Y-63728320D01*
X153168574Y-63620147D01*
X152891335Y-63565000D01*
X152608665Y-63565000D01*
X152361900Y-63614085D01*
X152361900Y-63533612D01*
X152485093Y-63410420D01*
X152608665Y-63435000D01*
X152891335Y-63435000D01*
X153168574Y-63379853D01*
X153429727Y-63271680D01*
X153664759Y-63114637D01*
X153864637Y-62914759D01*
X154021680Y-62679727D01*
X154129853Y-62418574D01*
X154185000Y-62141335D01*
X154185000Y-61858665D01*
X154129853Y-61581426D01*
X154021680Y-61320273D01*
X153864637Y-61085241D01*
X153664759Y-60885363D01*
X153429727Y-60728320D01*
X153168574Y-60620147D01*
X152891335Y-60565000D01*
X152608665Y-60565000D01*
X152331426Y-60620147D01*
X152235724Y-60659788D01*
X152485093Y-60410420D01*
X152608665Y-60435000D01*
X152891335Y-60435000D01*
X153168574Y-60379853D01*
X153429727Y-60271680D01*
X153664759Y-60114637D01*
X153864637Y-59914759D01*
X154021680Y-59679727D01*
X154129853Y-59418574D01*
X154185000Y-59141335D01*
X154185000Y-58858665D01*
X154129853Y-58581426D01*
X154021680Y-58320273D01*
X153864637Y-58085241D01*
X153664759Y-57885363D01*
X153429727Y-57728320D01*
X153168574Y-57620147D01*
X152891335Y-57565000D01*
X152608665Y-57565000D01*
X152331426Y-57620147D01*
X152070273Y-57728320D01*
X151835241Y-57885363D01*
X151635363Y-58085241D01*
X151478320Y-58320273D01*
X151370147Y-58581426D01*
X151315000Y-58858665D01*
X151315000Y-59141335D01*
X151339580Y-59264907D01*
X150914488Y-59690000D01*
X143011046Y-59690000D01*
X143107571Y-59486004D01*
X143176300Y-59211816D01*
X143190217Y-58929488D01*
X143148787Y-58649870D01*
X143053603Y-58383708D01*
X142986671Y-58258486D01*
X142742702Y-58186903D01*
X141929605Y-59000000D01*
X141943748Y-59014143D01*
X141764143Y-59193748D01*
X141750000Y-59179605D01*
X141114672Y-59814933D01*
X141099110Y-59823251D01*
X141043510Y-59868881D01*
X140975772Y-59924472D01*
X140950407Y-59955380D01*
X138730883Y-62174905D01*
X138699973Y-62200272D01*
X138674608Y-62231180D01*
X138598751Y-62323611D01*
X138523538Y-62464327D01*
X138477221Y-62617013D01*
X138461581Y-62775800D01*
X138465501Y-62815598D01*
X138465500Y-94618573D01*
X132700569Y-99984869D01*
X132705514Y-99935264D01*
X132713847Y-99860811D01*
X132710040Y-99816077D01*
X132757351Y-60237680D01*
X132761319Y-60197399D01*
X132753514Y-60118162D01*
X132745869Y-60039567D01*
X132745727Y-60039096D01*
X132745679Y-60038611D01*
X132722648Y-59962689D01*
X132699734Y-59886827D01*
X132699505Y-59886397D01*
X132699362Y-59885926D01*
X132661679Y-59815425D01*
X132624689Y-59746021D01*
X132624382Y-59745646D01*
X132624149Y-59745210D01*
X132573534Y-59683537D01*
X132523615Y-59622561D01*
X132492368Y-59596855D01*
X132160420Y-59264907D01*
X132185000Y-59141335D01*
X132185000Y-59070512D01*
X140309783Y-59070512D01*
X140351213Y-59350130D01*
X140446397Y-59616292D01*
X140513329Y-59741514D01*
X140757298Y-59813097D01*
X141570395Y-59000000D01*
X140757298Y-58186903D01*
X140513329Y-58258486D01*
X140392429Y-58513996D01*
X140323700Y-58788184D01*
X140309783Y-59070512D01*
X132185000Y-59070512D01*
X132185000Y-58858665D01*
X132129853Y-58581426D01*
X132021680Y-58320273D01*
X131864637Y-58085241D01*
X131786694Y-58007298D01*
X140936903Y-58007298D01*
X141750000Y-58820395D01*
X142563097Y-58007298D01*
X142491514Y-57763329D01*
X142236004Y-57642429D01*
X141961816Y-57573700D01*
X141679488Y-57559783D01*
X141399870Y-57601213D01*
X141133708Y-57696397D01*
X141008486Y-57763329D01*
X140936903Y-58007298D01*
X131786694Y-58007298D01*
X131664759Y-57885363D01*
X131467951Y-57753861D01*
X141072912Y-48148900D01*
X146161312Y-48148900D01*
X146201100Y-48152819D01*
X146240888Y-48148900D01*
X146240891Y-48148900D01*
X146359888Y-48137180D01*
X146512573Y-48090863D01*
X146653289Y-48015649D01*
X146776628Y-47914428D01*
X146802000Y-47883513D01*
X148147528Y-46537984D01*
X148383891Y-46585000D01*
X148696109Y-46585000D01*
X149002327Y-46524089D01*
X149290779Y-46404609D01*
X149550379Y-46231150D01*
X149771150Y-46010379D01*
X149944609Y-45750779D01*
X150064089Y-45462327D01*
X150125000Y-45156109D01*
X150125000Y-44843891D01*
X150064089Y-44537673D01*
X149944609Y-44249221D01*
X149771150Y-43989621D01*
X149550379Y-43768850D01*
X149290779Y-43595391D01*
X149002327Y-43475911D01*
X148696109Y-43415000D01*
X148383891Y-43415000D01*
X148077673Y-43475911D01*
X147789221Y-43595391D01*
X147541123Y-43761164D01*
X147539502Y-43755820D01*
X147480537Y-43645506D01*
X147401185Y-43548815D01*
X147304494Y-43469463D01*
X147194180Y-43410498D01*
X147074482Y-43374188D01*
X146950000Y-43361928D01*
X146285750Y-43365000D01*
X146127000Y-43523750D01*
X146127000Y-44873000D01*
X146147000Y-44873000D01*
X146147000Y-45127000D01*
X146127000Y-45127000D01*
X146127000Y-45147000D01*
X145873000Y-45147000D01*
X145873000Y-45127000D01*
X144573750Y-45127000D01*
X144415000Y-45285750D01*
X144411928Y-46000000D01*
X144424188Y-46124482D01*
X144460498Y-46244180D01*
X144519463Y-46354494D01*
X144598815Y-46451185D01*
X144693511Y-46528900D01*
X140777188Y-46528900D01*
X140737400Y-46524981D01*
X140697612Y-46528900D01*
X140697609Y-46528900D01*
X140578612Y-46540620D01*
X140425927Y-46586937D01*
X140360424Y-46621949D01*
X140285210Y-46662151D01*
X140267423Y-46676749D01*
X140161872Y-46763372D01*
X140136500Y-46794288D01*
X128914683Y-58016105D01*
X128883773Y-58041472D01*
X128858408Y-58072380D01*
X128782551Y-58164811D01*
X128762823Y-58201721D01*
X128707338Y-58305527D01*
X128665670Y-58442889D01*
X128661021Y-58458213D01*
X128645381Y-58617000D01*
X128649301Y-58656798D01*
X128649300Y-60195087D01*
X120122993Y-68721394D01*
X120135000Y-68661033D01*
X120135000Y-68338967D01*
X120072168Y-68023088D01*
X119948918Y-67725537D01*
X119769987Y-67457748D01*
X119542252Y-67230013D01*
X119274463Y-67051082D01*
X118976912Y-66927832D01*
X118661033Y-66865000D01*
X118338967Y-66865000D01*
X118023088Y-66927832D01*
X117725537Y-67051082D01*
X117457748Y-67230013D01*
X117250000Y-67437761D01*
X117042252Y-67230013D01*
X116774463Y-67051082D01*
X116476912Y-66927832D01*
X116161033Y-66865000D01*
X115838967Y-66865000D01*
X115523088Y-66927832D01*
X115225537Y-67051082D01*
X114957748Y-67230013D01*
X114730013Y-67457748D01*
X114665075Y-67554935D01*
X114635413Y-67544192D01*
X113679605Y-68500000D01*
X113693748Y-68514143D01*
X113514143Y-68693748D01*
X113500000Y-68679605D01*
X112544192Y-69635413D01*
X105010000Y-69635413D01*
X105010000Y-68562595D01*
X111858282Y-68562595D01*
X111902039Y-68881675D01*
X112007205Y-69186088D01*
X112100186Y-69360044D01*
X112364587Y-69455808D01*
X113320395Y-68500000D01*
X112364587Y-67544192D01*
X112100186Y-67639956D01*
X111959296Y-67929571D01*
X111877616Y-68241108D01*
X111858282Y-68562595D01*
X105010000Y-68562595D01*
X105010000Y-67364587D01*
X112544192Y-67364587D01*
X113500000Y-68320395D01*
X114455808Y-67364587D01*
X114360044Y-67100186D01*
X114070429Y-66959296D01*
X113758892Y-66877616D01*
X113437405Y-66858282D01*
X113118325Y-66902039D01*
X112813912Y-67007205D01*
X112639956Y-67100186D01*
X112544192Y-67364587D01*
X105010000Y-67364587D01*
X105010000Y-60164776D01*
X109015000Y-60164776D01*
X109015000Y-61835225D01*
X109040105Y-62090119D01*
X109139315Y-62417168D01*
X109300422Y-62718578D01*
X109517235Y-62982766D01*
X109781423Y-63199579D01*
X110082833Y-63360686D01*
X110409882Y-63459895D01*
X110750000Y-63493394D01*
X111090119Y-63459895D01*
X111417168Y-63360686D01*
X111718578Y-63199579D01*
X111982766Y-62982766D01*
X112199579Y-62718578D01*
X112360686Y-62417168D01*
X112459895Y-62090119D01*
X112485000Y-61835225D01*
X112485000Y-60164776D01*
X119515000Y-60164776D01*
X119515000Y-61835225D01*
X119540105Y-62090119D01*
X119639315Y-62417168D01*
X119800422Y-62718578D01*
X120017235Y-62982766D01*
X120281423Y-63199579D01*
X120582833Y-63360686D01*
X120909882Y-63459895D01*
X121250000Y-63493394D01*
X121590119Y-63459895D01*
X121917168Y-63360686D01*
X122218578Y-63199579D01*
X122482766Y-62982766D01*
X122699579Y-62718578D01*
X122860686Y-62417168D01*
X122959895Y-62090119D01*
X122985000Y-61835225D01*
X122985000Y-60164775D01*
X122959895Y-59909881D01*
X122860686Y-59582832D01*
X122699579Y-59281422D01*
X122482766Y-59017234D01*
X122218577Y-58800421D01*
X121917167Y-58639314D01*
X121590118Y-58540105D01*
X121250000Y-58506606D01*
X120909881Y-58540105D01*
X120582832Y-58639314D01*
X120281422Y-58800421D01*
X120017234Y-59017234D01*
X119800421Y-59281423D01*
X119639314Y-59582833D01*
X119540105Y-59909882D01*
X119515000Y-60164776D01*
X112485000Y-60164776D01*
X112485000Y-60164775D01*
X112459895Y-59909881D01*
X112360686Y-59582832D01*
X112199579Y-59281422D01*
X111982766Y-59017234D01*
X111718577Y-58800421D01*
X111417167Y-58639314D01*
X111090118Y-58540105D01*
X110750000Y-58506606D01*
X110409881Y-58540105D01*
X110082832Y-58639314D01*
X109781422Y-58800421D01*
X109517234Y-59017234D01*
X109300421Y-59281423D01*
X109139314Y-59582833D01*
X109040105Y-59909882D01*
X109015000Y-60164776D01*
X105010000Y-60164776D01*
X105010000Y-57907911D01*
X118065000Y-57907911D01*
X118065000Y-58092089D01*
X118100932Y-58272729D01*
X118171414Y-58442889D01*
X118273738Y-58596028D01*
X118403972Y-58726262D01*
X118557111Y-58828586D01*
X118727271Y-58899068D01*
X118907911Y-58935000D01*
X119092089Y-58935000D01*
X119272729Y-58899068D01*
X119442889Y-58828586D01*
X119596028Y-58726262D01*
X119726262Y-58596028D01*
X119828586Y-58442889D01*
X119899068Y-58272729D01*
X119905595Y-58239917D01*
X131544619Y-46600894D01*
X131575528Y-46575528D01*
X131676749Y-46452189D01*
X131751963Y-46311473D01*
X131798280Y-46158788D01*
X131810000Y-46039791D01*
X131810000Y-46039788D01*
X131813919Y-46000000D01*
X131810000Y-45960212D01*
X131810000Y-44888072D01*
X132250000Y-44888072D01*
X132374482Y-44875812D01*
X132494180Y-44839502D01*
X132604494Y-44780537D01*
X132701185Y-44701185D01*
X132780537Y-44604494D01*
X132839502Y-44494180D01*
X132875812Y-44374482D01*
X132881807Y-44313605D01*
X134946000Y-44313605D01*
X135071914Y-44603577D01*
X135404126Y-44769433D01*
X135762312Y-44867290D01*
X136132706Y-44893389D01*
X136501075Y-44846725D01*
X136853262Y-44729094D01*
X137088086Y-44603577D01*
X137214000Y-44313605D01*
X136080000Y-43179605D01*
X134946000Y-44313605D01*
X132881807Y-44313605D01*
X132888072Y-44250000D01*
X132888072Y-43052706D01*
X134186611Y-43052706D01*
X134233275Y-43421075D01*
X134350906Y-43773262D01*
X134476423Y-44008086D01*
X134766395Y-44134000D01*
X135900395Y-43000000D01*
X136259605Y-43000000D01*
X137393605Y-44134000D01*
X137683577Y-44008086D01*
X137687613Y-44000000D01*
X144411928Y-44000000D01*
X144415000Y-44714250D01*
X144573750Y-44873000D01*
X145873000Y-44873000D01*
X145873000Y-43523750D01*
X145714250Y-43365000D01*
X145050000Y-43361928D01*
X144925518Y-43374188D01*
X144805820Y-43410498D01*
X144695506Y-43469463D01*
X144598815Y-43548815D01*
X144519463Y-43645506D01*
X144460498Y-43755820D01*
X144424188Y-43875518D01*
X144411928Y-44000000D01*
X137687613Y-44000000D01*
X137849433Y-43675874D01*
X137947290Y-43317688D01*
X137973389Y-42947294D01*
X137926725Y-42578925D01*
X137809094Y-42226738D01*
X137683577Y-41991914D01*
X137393605Y-41866000D01*
X136259605Y-43000000D01*
X135900395Y-43000000D01*
X134766395Y-41866000D01*
X134476423Y-41991914D01*
X134310567Y-42324126D01*
X134212710Y-42682312D01*
X134186611Y-43052706D01*
X132888072Y-43052706D01*
X132888072Y-41750000D01*
X132881808Y-41686395D01*
X134946000Y-41686395D01*
X136080000Y-42820395D01*
X137214000Y-41686395D01*
X137194716Y-41641984D01*
X153765000Y-41641984D01*
X153765000Y-42358016D01*
X153904691Y-43060290D01*
X154178705Y-43721818D01*
X154576511Y-44317177D01*
X155082823Y-44823489D01*
X155678182Y-45221295D01*
X156339710Y-45495309D01*
X157041984Y-45635000D01*
X157758016Y-45635000D01*
X158460290Y-45495309D01*
X159121818Y-45221295D01*
X159717177Y-44823489D01*
X160223489Y-44317177D01*
X160621295Y-43721818D01*
X160895309Y-43060290D01*
X161035000Y-42358016D01*
X161035000Y-41641984D01*
X160895309Y-40939710D01*
X160621295Y-40278182D01*
X160223489Y-39682823D01*
X159717177Y-39176511D01*
X159121818Y-38778705D01*
X158460290Y-38504691D01*
X157758016Y-38365000D01*
X157041984Y-38365000D01*
X156339710Y-38504691D01*
X155678182Y-38778705D01*
X155082823Y-39176511D01*
X154576511Y-39682823D01*
X154178705Y-40278182D01*
X153904691Y-40939710D01*
X153765000Y-41641984D01*
X137194716Y-41641984D01*
X137088086Y-41396423D01*
X136755874Y-41230567D01*
X136397688Y-41132710D01*
X136027294Y-41106611D01*
X135658925Y-41153275D01*
X135306738Y-41270906D01*
X135071914Y-41396423D01*
X134946000Y-41686395D01*
X132881808Y-41686395D01*
X132875812Y-41625518D01*
X132839502Y-41505820D01*
X132780537Y-41395506D01*
X132701185Y-41298815D01*
X132604494Y-41219463D01*
X132494180Y-41160498D01*
X132374482Y-41124188D01*
X132250000Y-41111928D01*
X129750000Y-41111928D01*
X129625518Y-41124188D01*
X129505820Y-41160498D01*
X129395506Y-41219463D01*
X129298815Y-41298815D01*
X129219463Y-41395506D01*
X129160498Y-41505820D01*
X129124188Y-41625518D01*
X129111928Y-41750000D01*
X129111928Y-44250000D01*
X129124188Y-44374482D01*
X129160498Y-44494180D01*
X129219463Y-44604494D01*
X129298815Y-44701185D01*
X129395506Y-44780537D01*
X129505820Y-44839502D01*
X129625518Y-44875812D01*
X129750000Y-44888072D01*
X130190000Y-44888072D01*
X130190000Y-45664487D01*
X118760083Y-57094405D01*
X118727271Y-57100932D01*
X118557111Y-57171414D01*
X118403972Y-57273738D01*
X118273738Y-57403972D01*
X118171414Y-57557111D01*
X118100932Y-57727271D01*
X118065000Y-57907911D01*
X105010000Y-57907911D01*
X105010000Y-41641984D01*
X105665000Y-41641984D01*
X105665000Y-42358016D01*
X105804691Y-43060290D01*
X106078705Y-43721818D01*
X106476511Y-44317177D01*
X106982823Y-44823489D01*
X107578182Y-45221295D01*
X108239710Y-45495309D01*
X108941984Y-45635000D01*
X109658016Y-45635000D01*
X110360290Y-45495309D01*
X111021818Y-45221295D01*
X111617177Y-44823489D01*
X112123489Y-44317177D01*
X112521295Y-43721818D01*
X112795309Y-43060290D01*
X112935000Y-42358016D01*
X112935000Y-41641984D01*
X112795309Y-40939710D01*
X112521295Y-40278182D01*
X112123489Y-39682823D01*
X111617177Y-39176511D01*
X111021818Y-38778705D01*
X110360290Y-38504691D01*
X109658016Y-38365000D01*
X108941984Y-38365000D01*
X108239710Y-38504691D01*
X107578182Y-38778705D01*
X106982823Y-39176511D01*
X106476511Y-39682823D01*
X106078705Y-40278182D01*
X105804691Y-40939710D01*
X105665000Y-41641984D01*
X105010000Y-41641984D01*
X105010000Y-38010000D01*
X161290001Y-38010000D01*
X161290001Y-38265115D01*
X161290001Y-38265115D01*
G37*
X161290001Y-38265115D02*
X161290000Y-38265124D01*
X161290001Y-143965114D01*
X161290000Y-143965124D01*
X161290000Y-144290000D01*
X105010000Y-144290000D01*
X105010000Y-139941984D01*
X105665000Y-139941984D01*
X105665000Y-140658016D01*
X105804691Y-141360290D01*
X106078705Y-142021818D01*
X106476511Y-142617177D01*
X106982823Y-143123489D01*
X107578182Y-143521295D01*
X108239710Y-143795309D01*
X108941984Y-143935000D01*
X109658016Y-143935000D01*
X110360290Y-143795309D01*
X111021818Y-143521295D01*
X111617177Y-143123489D01*
X112123489Y-142617177D01*
X112521295Y-142021818D01*
X112675307Y-141650000D01*
X114261928Y-141650000D01*
X114274188Y-141774482D01*
X114310498Y-141894180D01*
X114369463Y-142004494D01*
X114448815Y-142101185D01*
X114545506Y-142180537D01*
X114655820Y-142239502D01*
X114775518Y-142275812D01*
X114900000Y-142288072D01*
X115364250Y-142285000D01*
X115523000Y-142126250D01*
X115523000Y-141127000D01*
X114423750Y-141127000D01*
X114265000Y-141285750D01*
X114261928Y-141650000D01*
X112675307Y-141650000D01*
X112795309Y-141360290D01*
X112935000Y-140658016D01*
X112935000Y-139941984D01*
X112795309Y-139239710D01*
X112521295Y-138578182D01*
X112123489Y-137982823D01*
X111617177Y-137476511D01*
X111021818Y-137078705D01*
X110360290Y-136804691D01*
X109658016Y-136665000D01*
X108941984Y-136665000D01*
X108239710Y-136804691D01*
X107578182Y-137078705D01*
X106982823Y-137476511D01*
X106476511Y-137982823D01*
X106078705Y-138578182D01*
X105804691Y-139239710D01*
X105665000Y-139941984D01*
X105010000Y-139941984D01*
X105010000Y-69635413D01*
X112544192Y-69635413D01*
X112639956Y-69899814D01*
X112929571Y-70040704D01*
X113241108Y-70122384D01*
X113562595Y-70141718D01*
X113697301Y-70123245D01*
X113697300Y-137623712D01*
X113693381Y-137663500D01*
X113697300Y-137703288D01*
X113697300Y-137703290D01*
X113709020Y-137822287D01*
X113755337Y-137974972D01*
X113787583Y-138035300D01*
X113830551Y-138115689D01*
X113862003Y-138154013D01*
X113931772Y-138239028D01*
X113962687Y-138264399D01*
X115471105Y-139772818D01*
X115496472Y-139803728D01*
X115522998Y-139825497D01*
X115522998Y-139873748D01*
X115364250Y-139715000D01*
X114900000Y-139711928D01*
X114775518Y-139724188D01*
X114655820Y-139760498D01*
X114545506Y-139819463D01*
X114448815Y-139898815D01*
X114369463Y-139995506D01*
X114310498Y-140105820D01*
X114274188Y-140225518D01*
X114261928Y-140350000D01*
X114265000Y-140714250D01*
X114423750Y-140873000D01*
X115523000Y-140873000D01*
X115523000Y-140853000D01*
X115777000Y-140853000D01*
X115777000Y-140873000D01*
X115797000Y-140873000D01*
X115797000Y-141127000D01*
X115777000Y-141127000D01*
X115777000Y-142126250D01*
X115935750Y-142285000D01*
X116400000Y-142288072D01*
X116524482Y-142275812D01*
X116644180Y-142239502D01*
X116754494Y-142180537D01*
X116851185Y-142101185D01*
X116930537Y-142004494D01*
X116989502Y-141894180D01*
X117000000Y-141859573D01*
X117010498Y-141894180D01*
X117069463Y-142004494D01*
X117148815Y-142101185D01*
X117245506Y-142180537D01*
X117355820Y-142239502D01*
X117475518Y-142275812D01*
X117600000Y-142288072D01*
X119100000Y-142288072D01*
X119224482Y-142275812D01*
X119344180Y-142239502D01*
X119454494Y-142180537D01*
X119485159Y-142155371D01*
X119559305Y-142229518D01*
X119584672Y-142260428D01*
X119615580Y-142285793D01*
X119708010Y-142361649D01*
X119783224Y-142401851D01*
X119848727Y-142436863D01*
X120001412Y-142483180D01*
X120120409Y-142494900D01*
X120120412Y-142494900D01*
X120160200Y-142498819D01*
X120199988Y-142494900D01*
X127291547Y-142494900D01*
X127265000Y-142628363D01*
X127265000Y-142871637D01*
X127312460Y-143110236D01*
X127405557Y-143334992D01*
X127540713Y-143537267D01*
X127712733Y-143709287D01*
X127915008Y-143844443D01*
X128139764Y-143937540D01*
X128378363Y-143985000D01*
X128621637Y-143985000D01*
X128860236Y-143937540D01*
X129084992Y-143844443D01*
X129287267Y-143709287D01*
X129459287Y-143537267D01*
X129594443Y-143334992D01*
X129687540Y-143110236D01*
X129735000Y-142871637D01*
X129735000Y-142628363D01*
X129708453Y-142494900D01*
X130550012Y-142494900D01*
X130589800Y-142498819D01*
X130629588Y-142494900D01*
X130629591Y-142494900D01*
X130748588Y-142483180D01*
X130901273Y-142436863D01*
X131041989Y-142361649D01*
X131165328Y-142260428D01*
X131190699Y-142229513D01*
X131640313Y-141779900D01*
X131698815Y-141851185D01*
X131795506Y-141930537D01*
X131905820Y-141989502D01*
X132025518Y-142025812D01*
X132150000Y-142038072D01*
X134850000Y-142038072D01*
X134974482Y-142025812D01*
X135094180Y-141989502D01*
X135204494Y-141930537D01*
X135301185Y-141851185D01*
X135380537Y-141754494D01*
X135439502Y-141644180D01*
X135475812Y-141524482D01*
X135488072Y-141400000D01*
X135488072Y-140034700D01*
X137355979Y-140034700D01*
X137312460Y-140139764D01*
X137265000Y-140378363D01*
X137265000Y-140621637D01*
X137312460Y-140860236D01*
X137405557Y-141084992D01*
X137540713Y-141287267D01*
X137712733Y-141459287D01*
X137915008Y-141594443D01*
X137988779Y-141625000D01*
X137915008Y-141655557D01*
X137712733Y-141790713D01*
X137540713Y-141962733D01*
X137405557Y-142165008D01*
X137312460Y-142389764D01*
X137265000Y-142628363D01*
X137265000Y-142871637D01*
X137312460Y-143110236D01*
X137405557Y-143334992D01*
X137540713Y-143537267D01*
X137712733Y-143709287D01*
X137915008Y-143844443D01*
X138139764Y-143937540D01*
X138378363Y-143985000D01*
X138621637Y-143985000D01*
X138860236Y-143937540D01*
X139084992Y-143844443D01*
X139287267Y-143709287D01*
X139459287Y-143537267D01*
X139594443Y-143334992D01*
X139687540Y-143110236D01*
X139735000Y-142871637D01*
X139735000Y-142628363D01*
X139687540Y-142389764D01*
X139594443Y-142165008D01*
X139459287Y-141962733D01*
X139287267Y-141790713D01*
X139084992Y-141655557D01*
X139011221Y-141625000D01*
X139084992Y-141594443D01*
X139287267Y-141459287D01*
X139459287Y-141287267D01*
X139594443Y-141084992D01*
X139687540Y-140860236D01*
X139735000Y-140621637D01*
X139735000Y-140378363D01*
X139687540Y-140139764D01*
X139644021Y-140034700D01*
X150565012Y-140034700D01*
X150604800Y-140038619D01*
X150644588Y-140034700D01*
X150644591Y-140034700D01*
X150763588Y-140022980D01*
X150916273Y-139976663D01*
X150981153Y-139941984D01*
X153765000Y-139941984D01*
X153765000Y-140658016D01*
X153904691Y-141360290D01*
X154178705Y-142021818D01*
X154576511Y-142617177D01*
X155082823Y-143123489D01*
X155678182Y-143521295D01*
X156339710Y-143795309D01*
X157041984Y-143935000D01*
X157758016Y-143935000D01*
X158460290Y-143795309D01*
X159121818Y-143521295D01*
X159717177Y-143123489D01*
X160223489Y-142617177D01*
X160621295Y-142021818D01*
X160895309Y-141360290D01*
X161035000Y-140658016D01*
X161035000Y-139941984D01*
X160895309Y-139239710D01*
X160621295Y-138578182D01*
X160223489Y-137982823D01*
X159717177Y-137476511D01*
X159121818Y-137078705D01*
X158460290Y-136804691D01*
X157758016Y-136665000D01*
X157041984Y-136665000D01*
X156339710Y-136804691D01*
X155678182Y-137078705D01*
X155082823Y-137476511D01*
X154576511Y-137982823D01*
X154178705Y-138578182D01*
X153904691Y-139239710D01*
X153765000Y-139941984D01*
X150981153Y-139941984D01*
X151056989Y-139901449D01*
X151180328Y-139800228D01*
X151205700Y-139769312D01*
X154918519Y-136056494D01*
X154949428Y-136031128D01*
X155011231Y-135955820D01*
X155050649Y-135907790D01*
X155114560Y-135788219D01*
X155125863Y-135767073D01*
X155172180Y-135614388D01*
X155183900Y-135495391D01*
X155183900Y-135495389D01*
X155187819Y-135455601D01*
X155183900Y-135415813D01*
X155183900Y-119000000D01*
X155401928Y-119000000D01*
X155414188Y-119124482D01*
X155450498Y-119244180D01*
X155509463Y-119354494D01*
X155588815Y-119451185D01*
X155685506Y-119530537D01*
X155795820Y-119589502D01*
X155915518Y-119625812D01*
X156040000Y-119638072D01*
X157254250Y-119635000D01*
X157413000Y-119476250D01*
X157413000Y-117127000D01*
X157667000Y-117127000D01*
X157667000Y-119476250D01*
X157825750Y-119635000D01*
X159040000Y-119638072D01*
X159164482Y-119625812D01*
X159284180Y-119589502D01*
X159394494Y-119530537D01*
X159491185Y-119451185D01*
X159570537Y-119354494D01*
X159629502Y-119244180D01*
X159665812Y-119124482D01*
X159678072Y-119000000D01*
X159675000Y-117285750D01*
X159516250Y-117127000D01*
X157667000Y-117127000D01*
X157413000Y-117127000D01*
X155563750Y-117127000D01*
X155405000Y-117285750D01*
X155401928Y-119000000D01*
X155183900Y-119000000D01*
X155183900Y-115000000D01*
X155401928Y-115000000D01*
X155405000Y-116714250D01*
X155563750Y-116873000D01*
X157413000Y-116873000D01*
X157413000Y-114523750D01*
X157667000Y-114523750D01*
X157667000Y-116873000D01*
X159516250Y-116873000D01*
X159675000Y-116714250D01*
X159678072Y-115000000D01*
X159665812Y-114875518D01*
X159629502Y-114755820D01*
X159570537Y-114645506D01*
X159491185Y-114548815D01*
X159394494Y-114469463D01*
X159284180Y-114410498D01*
X159164482Y-114374188D01*
X159040000Y-114361928D01*
X157825750Y-114365000D01*
X157667000Y-114523750D01*
X157413000Y-114523750D01*
X157254250Y-114365000D01*
X156040000Y-114361928D01*
X155915518Y-114374188D01*
X155795820Y-114410498D01*
X155685506Y-114469463D01*
X155588815Y-114548815D01*
X155509463Y-114645506D01*
X155450498Y-114755820D01*
X155414188Y-114875518D01*
X155401928Y-115000000D01*
X155183900Y-115000000D01*
X155183900Y-102329091D01*
X155187819Y-102289300D01*
X155172180Y-102130512D01*
X155125863Y-101977826D01*
X155050649Y-101837111D01*
X154974793Y-101744680D01*
X154949428Y-101713772D01*
X154918518Y-101688405D01*
X144384600Y-91154488D01*
X144384600Y-63864387D01*
X144388519Y-63824599D01*
X144384600Y-63784809D01*
X144372880Y-63665812D01*
X144326563Y-63513127D01*
X144255327Y-63379853D01*
X144251349Y-63372410D01*
X144205719Y-63316810D01*
X144150128Y-63249072D01*
X144119218Y-63223705D01*
X143160420Y-62264907D01*
X143185000Y-62141335D01*
X143185000Y-61858665D01*
X143129853Y-61581426D01*
X143021680Y-61320273D01*
X143014816Y-61310000D01*
X151210212Y-61310000D01*
X151250000Y-61313919D01*
X151289788Y-61310000D01*
X151289791Y-61310000D01*
X151408788Y-61298280D01*
X151514427Y-61266234D01*
X151478320Y-61320273D01*
X151370147Y-61581426D01*
X151315000Y-61858665D01*
X151315000Y-62141335D01*
X151339580Y-62264907D01*
X151007287Y-62597201D01*
X150976372Y-62622572D01*
X150929467Y-62679727D01*
X150875151Y-62745911D01*
X150834949Y-62821125D01*
X150799937Y-62886628D01*
X150753620Y-63039313D01*
X150742930Y-63147851D01*
X150737981Y-63198100D01*
X150741900Y-63237888D01*
X150741901Y-76676802D01*
X150737981Y-76716600D01*
X150753621Y-76875387D01*
X150799938Y-77028073D01*
X150875151Y-77168789D01*
X150930752Y-77236539D01*
X150976373Y-77292128D01*
X151007283Y-77317495D01*
X151051716Y-77361928D01*
X150960000Y-77361928D01*
X150835518Y-77374188D01*
X150715820Y-77410498D01*
X150605506Y-77469463D01*
X150508815Y-77548815D01*
X150429463Y-77645506D01*
X150370498Y-77755820D01*
X150334188Y-77875518D01*
X150321928Y-78000000D01*
X150321928Y-82000000D01*
X150334188Y-82124482D01*
X150370498Y-82244180D01*
X150429463Y-82354494D01*
X150508815Y-82451185D01*
X150605506Y-82530537D01*
X150715820Y-82589502D01*
X150835518Y-82625812D01*
X150960000Y-82638072D01*
X153960000Y-82638072D01*
X154084482Y-82625812D01*
X154204180Y-82589502D01*
X154314494Y-82530537D01*
X154411185Y-82451185D01*
X154490537Y-82354494D01*
X154549502Y-82244180D01*
X154585812Y-82124482D01*
X154598072Y-82000000D01*
X155401928Y-82000000D01*
X155414188Y-82124482D01*
X155450498Y-82244180D01*
X155509463Y-82354494D01*
X155588815Y-82451185D01*
X155685506Y-82530537D01*
X155795820Y-82589502D01*
X155915518Y-82625812D01*
X156040000Y-82638072D01*
X157254250Y-82635000D01*
X157413000Y-82476250D01*
X157413000Y-80127000D01*
X157667000Y-80127000D01*
X157667000Y-82476250D01*
X157825750Y-82635000D01*
X159040000Y-82638072D01*
X159164482Y-82625812D01*
X159284180Y-82589502D01*
X159394494Y-82530537D01*
X159491185Y-82451185D01*
X159570537Y-82354494D01*
X159629502Y-82244180D01*
X159665812Y-82124482D01*
X159678072Y-82000000D01*
X159675000Y-80285750D01*
X159516250Y-80127000D01*
X157667000Y-80127000D01*
X157413000Y-80127000D01*
X155563750Y-80127000D01*
X155405000Y-80285750D01*
X155401928Y-82000000D01*
X154598072Y-82000000D01*
X154598072Y-78000000D01*
X155401928Y-78000000D01*
X155405000Y-79714250D01*
X155563750Y-79873000D01*
X157413000Y-79873000D01*
X157413000Y-77523750D01*
X157667000Y-77523750D01*
X157667000Y-79873000D01*
X159516250Y-79873000D01*
X159675000Y-79714250D01*
X159678072Y-78000000D01*
X159665812Y-77875518D01*
X159629502Y-77755820D01*
X159570537Y-77645506D01*
X159491185Y-77548815D01*
X159394494Y-77469463D01*
X159284180Y-77410498D01*
X159164482Y-77374188D01*
X159040000Y-77361928D01*
X157825750Y-77365000D01*
X157667000Y-77523750D01*
X157413000Y-77523750D01*
X157254250Y-77365000D01*
X156040000Y-77361928D01*
X155915518Y-77374188D01*
X155795820Y-77410498D01*
X155685506Y-77469463D01*
X155588815Y-77548815D01*
X155509463Y-77645506D01*
X155450498Y-77755820D01*
X155414188Y-77875518D01*
X155401928Y-78000000D01*
X154598072Y-78000000D01*
X154585812Y-77875518D01*
X154549502Y-77755820D01*
X154490537Y-77645506D01*
X154411185Y-77548815D01*
X154314494Y-77469463D01*
X154204180Y-77410498D01*
X154084482Y-77374188D01*
X153960000Y-77361928D01*
X153226736Y-77361928D01*
X153211963Y-77313227D01*
X153176951Y-77247724D01*
X153136749Y-77172510D01*
X153091119Y-77116910D01*
X153035528Y-77049172D01*
X153004618Y-77023805D01*
X152361900Y-76381088D01*
X152361900Y-66385915D01*
X152608665Y-66435000D01*
X152891335Y-66435000D01*
X153168574Y-66379853D01*
X153429727Y-66271680D01*
X153664759Y-66114637D01*
X153864637Y-65914759D01*
X154021680Y-65679727D01*
X154129853Y-65418574D01*
X154185000Y-65141335D01*
X154185000Y-64858665D01*
X154129853Y-64581426D01*
X154021680Y-64320273D01*
X153864637Y-64085241D01*
X153664759Y-63885363D01*
X153429727Y-63728320D01*
X153168574Y-63620147D01*
X152891335Y-63565000D01*
X152608665Y-63565000D01*
X152361900Y-63614085D01*
X152361900Y-63533612D01*
X152485093Y-63410420D01*
X152608665Y-63435000D01*
X152891335Y-63435000D01*
X153168574Y-63379853D01*
X153429727Y-63271680D01*
X153664759Y-63114637D01*
X153864637Y-62914759D01*
X154021680Y-62679727D01*
X154129853Y-62418574D01*
X154185000Y-62141335D01*
X154185000Y-61858665D01*
X154129853Y-61581426D01*
X154021680Y-61320273D01*
X153864637Y-61085241D01*
X153664759Y-60885363D01*
X153429727Y-60728320D01*
X153168574Y-60620147D01*
X152891335Y-60565000D01*
X152608665Y-60565000D01*
X152331426Y-60620147D01*
X152235724Y-60659788D01*
X152485093Y-60410420D01*
X152608665Y-60435000D01*
X152891335Y-60435000D01*
X153168574Y-60379853D01*
X153429727Y-60271680D01*
X153664759Y-60114637D01*
X153864637Y-59914759D01*
X154021680Y-59679727D01*
X154129853Y-59418574D01*
X154185000Y-59141335D01*
X154185000Y-58858665D01*
X154129853Y-58581426D01*
X154021680Y-58320273D01*
X153864637Y-58085241D01*
X153664759Y-57885363D01*
X153429727Y-57728320D01*
X153168574Y-57620147D01*
X152891335Y-57565000D01*
X152608665Y-57565000D01*
X152331426Y-57620147D01*
X152070273Y-57728320D01*
X151835241Y-57885363D01*
X151635363Y-58085241D01*
X151478320Y-58320273D01*
X151370147Y-58581426D01*
X151315000Y-58858665D01*
X151315000Y-59141335D01*
X151339580Y-59264907D01*
X150914488Y-59690000D01*
X143011046Y-59690000D01*
X143107571Y-59486004D01*
X143176300Y-59211816D01*
X143190217Y-58929488D01*
X143148787Y-58649870D01*
X143053603Y-58383708D01*
X142986671Y-58258486D01*
X142742702Y-58186903D01*
X141929605Y-59000000D01*
X141943748Y-59014143D01*
X141764143Y-59193748D01*
X141750000Y-59179605D01*
X141114672Y-59814933D01*
X141099110Y-59823251D01*
X141043510Y-59868881D01*
X140975772Y-59924472D01*
X140950407Y-59955380D01*
X138730883Y-62174905D01*
X138699973Y-62200272D01*
X138674608Y-62231180D01*
X138598751Y-62323611D01*
X138523538Y-62464327D01*
X138477221Y-62617013D01*
X138461581Y-62775800D01*
X138465501Y-62815598D01*
X138465500Y-94618573D01*
X132700569Y-99984869D01*
X132705514Y-99935264D01*
X132713847Y-99860811D01*
X132710040Y-99816077D01*
X132757351Y-60237680D01*
X132761319Y-60197399D01*
X132753514Y-60118162D01*
X132745869Y-60039567D01*
X132745727Y-60039096D01*
X132745679Y-60038611D01*
X132722648Y-59962689D01*
X132699734Y-59886827D01*
X132699505Y-59886397D01*
X132699362Y-59885926D01*
X132661679Y-59815425D01*
X132624689Y-59746021D01*
X132624382Y-59745646D01*
X132624149Y-59745210D01*
X132573534Y-59683537D01*
X132523615Y-59622561D01*
X132492368Y-59596855D01*
X132160420Y-59264907D01*
X132185000Y-59141335D01*
X132185000Y-59070512D01*
X140309783Y-59070512D01*
X140351213Y-59350130D01*
X140446397Y-59616292D01*
X140513329Y-59741514D01*
X140757298Y-59813097D01*
X141570395Y-59000000D01*
X140757298Y-58186903D01*
X140513329Y-58258486D01*
X140392429Y-58513996D01*
X140323700Y-58788184D01*
X140309783Y-59070512D01*
X132185000Y-59070512D01*
X132185000Y-58858665D01*
X132129853Y-58581426D01*
X132021680Y-58320273D01*
X131864637Y-58085241D01*
X131786694Y-58007298D01*
X140936903Y-58007298D01*
X141750000Y-58820395D01*
X142563097Y-58007298D01*
X142491514Y-57763329D01*
X142236004Y-57642429D01*
X141961816Y-57573700D01*
X141679488Y-57559783D01*
X141399870Y-57601213D01*
X141133708Y-57696397D01*
X141008486Y-57763329D01*
X140936903Y-58007298D01*
X131786694Y-58007298D01*
X131664759Y-57885363D01*
X131467951Y-57753861D01*
X141072912Y-48148900D01*
X146161312Y-48148900D01*
X146201100Y-48152819D01*
X146240888Y-48148900D01*
X146240891Y-48148900D01*
X146359888Y-48137180D01*
X146512573Y-48090863D01*
X146653289Y-48015649D01*
X146776628Y-47914428D01*
X146802000Y-47883513D01*
X148147528Y-46537984D01*
X148383891Y-46585000D01*
X148696109Y-46585000D01*
X149002327Y-46524089D01*
X149290779Y-46404609D01*
X149550379Y-46231150D01*
X149771150Y-46010379D01*
X149944609Y-45750779D01*
X150064089Y-45462327D01*
X150125000Y-45156109D01*
X150125000Y-44843891D01*
X150064089Y-44537673D01*
X149944609Y-44249221D01*
X149771150Y-43989621D01*
X149550379Y-43768850D01*
X149290779Y-43595391D01*
X149002327Y-43475911D01*
X148696109Y-43415000D01*
X148383891Y-43415000D01*
X148077673Y-43475911D01*
X147789221Y-43595391D01*
X147541123Y-43761164D01*
X147539502Y-43755820D01*
X147480537Y-43645506D01*
X147401185Y-43548815D01*
X147304494Y-43469463D01*
X147194180Y-43410498D01*
X147074482Y-43374188D01*
X146950000Y-43361928D01*
X146285750Y-43365000D01*
X146127000Y-43523750D01*
X146127000Y-44873000D01*
X146147000Y-44873000D01*
X146147000Y-45127000D01*
X146127000Y-45127000D01*
X146127000Y-45147000D01*
X145873000Y-45147000D01*
X145873000Y-45127000D01*
X144573750Y-45127000D01*
X144415000Y-45285750D01*
X144411928Y-46000000D01*
X144424188Y-46124482D01*
X144460498Y-46244180D01*
X144519463Y-46354494D01*
X144598815Y-46451185D01*
X144693511Y-46528900D01*
X140777188Y-46528900D01*
X140737400Y-46524981D01*
X140697612Y-46528900D01*
X140697609Y-46528900D01*
X140578612Y-46540620D01*
X140425927Y-46586937D01*
X140360424Y-46621949D01*
X140285210Y-46662151D01*
X140267423Y-46676749D01*
X140161872Y-46763372D01*
X140136500Y-46794288D01*
X128914683Y-58016105D01*
X128883773Y-58041472D01*
X128858408Y-58072380D01*
X128782551Y-58164811D01*
X128762823Y-58201721D01*
X128707338Y-58305527D01*
X128665670Y-58442889D01*
X128661021Y-58458213D01*
X128645381Y-58617000D01*
X128649301Y-58656798D01*
X128649300Y-60195087D01*
X120122993Y-68721394D01*
X120135000Y-68661033D01*
X120135000Y-68338967D01*
X120072168Y-68023088D01*
X119948918Y-67725537D01*
X119769987Y-67457748D01*
X119542252Y-67230013D01*
X119274463Y-67051082D01*
X118976912Y-66927832D01*
X118661033Y-66865000D01*
X118338967Y-66865000D01*
X118023088Y-66927832D01*
X117725537Y-67051082D01*
X117457748Y-67230013D01*
X117250000Y-67437761D01*
X117042252Y-67230013D01*
X116774463Y-67051082D01*
X116476912Y-66927832D01*
X116161033Y-66865000D01*
X115838967Y-66865000D01*
X115523088Y-66927832D01*
X115225537Y-67051082D01*
X114957748Y-67230013D01*
X114730013Y-67457748D01*
X114665075Y-67554935D01*
X114635413Y-67544192D01*
X113679605Y-68500000D01*
X113693748Y-68514143D01*
X113514143Y-68693748D01*
X113500000Y-68679605D01*
X112544192Y-69635413D01*
X105010000Y-69635413D01*
X105010000Y-68562595D01*
X111858282Y-68562595D01*
X111902039Y-68881675D01*
X112007205Y-69186088D01*
X112100186Y-69360044D01*
X112364587Y-69455808D01*
X113320395Y-68500000D01*
X112364587Y-67544192D01*
X112100186Y-67639956D01*
X111959296Y-67929571D01*
X111877616Y-68241108D01*
X111858282Y-68562595D01*
X105010000Y-68562595D01*
X105010000Y-67364587D01*
X112544192Y-67364587D01*
X113500000Y-68320395D01*
X114455808Y-67364587D01*
X114360044Y-67100186D01*
X114070429Y-66959296D01*
X113758892Y-66877616D01*
X113437405Y-66858282D01*
X113118325Y-66902039D01*
X112813912Y-67007205D01*
X112639956Y-67100186D01*
X112544192Y-67364587D01*
X105010000Y-67364587D01*
X105010000Y-60164776D01*
X109015000Y-60164776D01*
X109015000Y-61835225D01*
X109040105Y-62090119D01*
X109139315Y-62417168D01*
X109300422Y-62718578D01*
X109517235Y-62982766D01*
X109781423Y-63199579D01*
X110082833Y-63360686D01*
X110409882Y-63459895D01*
X110750000Y-63493394D01*
X111090119Y-63459895D01*
X111417168Y-63360686D01*
X111718578Y-63199579D01*
X111982766Y-62982766D01*
X112199579Y-62718578D01*
X112360686Y-62417168D01*
X112459895Y-62090119D01*
X112485000Y-61835225D01*
X112485000Y-60164776D01*
X119515000Y-60164776D01*
X119515000Y-61835225D01*
X119540105Y-62090119D01*
X119639315Y-62417168D01*
X119800422Y-62718578D01*
X120017235Y-62982766D01*
X120281423Y-63199579D01*
X120582833Y-63360686D01*
X120909882Y-63459895D01*
X121250000Y-63493394D01*
X121590119Y-63459895D01*
X121917168Y-63360686D01*
X122218578Y-63199579D01*
X122482766Y-62982766D01*
X122699579Y-62718578D01*
X122860686Y-62417168D01*
X122959895Y-62090119D01*
X122985000Y-61835225D01*
X122985000Y-60164775D01*
X122959895Y-59909881D01*
X122860686Y-59582832D01*
X122699579Y-59281422D01*
X122482766Y-59017234D01*
X122218577Y-58800421D01*
X121917167Y-58639314D01*
X121590118Y-58540105D01*
X121250000Y-58506606D01*
X120909881Y-58540105D01*
X120582832Y-58639314D01*
X120281422Y-58800421D01*
X120017234Y-59017234D01*
X119800421Y-59281423D01*
X119639314Y-59582833D01*
X119540105Y-59909882D01*
X119515000Y-60164776D01*
X112485000Y-60164776D01*
X112485000Y-60164775D01*
X112459895Y-59909881D01*
X112360686Y-59582832D01*
X112199579Y-59281422D01*
X111982766Y-59017234D01*
X111718577Y-58800421D01*
X111417167Y-58639314D01*
X111090118Y-58540105D01*
X110750000Y-58506606D01*
X110409881Y-58540105D01*
X110082832Y-58639314D01*
X109781422Y-58800421D01*
X109517234Y-59017234D01*
X109300421Y-59281423D01*
X109139314Y-59582833D01*
X109040105Y-59909882D01*
X109015000Y-60164776D01*
X105010000Y-60164776D01*
X105010000Y-57907911D01*
X118065000Y-57907911D01*
X118065000Y-58092089D01*
X118100932Y-58272729D01*
X118171414Y-58442889D01*
X118273738Y-58596028D01*
X118403972Y-58726262D01*
X118557111Y-58828586D01*
X118727271Y-58899068D01*
X118907911Y-58935000D01*
X119092089Y-58935000D01*
X119272729Y-58899068D01*
X119442889Y-58828586D01*
X119596028Y-58726262D01*
X119726262Y-58596028D01*
X119828586Y-58442889D01*
X119899068Y-58272729D01*
X119905595Y-58239917D01*
X131544619Y-46600894D01*
X131575528Y-46575528D01*
X131676749Y-46452189D01*
X131751963Y-46311473D01*
X131798280Y-46158788D01*
X131810000Y-46039791D01*
X131810000Y-46039788D01*
X131813919Y-46000000D01*
X131810000Y-45960212D01*
X131810000Y-44888072D01*
X132250000Y-44888072D01*
X132374482Y-44875812D01*
X132494180Y-44839502D01*
X132604494Y-44780537D01*
X132701185Y-44701185D01*
X132780537Y-44604494D01*
X132839502Y-44494180D01*
X132875812Y-44374482D01*
X132881807Y-44313605D01*
X134946000Y-44313605D01*
X135071914Y-44603577D01*
X135404126Y-44769433D01*
X135762312Y-44867290D01*
X136132706Y-44893389D01*
X136501075Y-44846725D01*
X136853262Y-44729094D01*
X137088086Y-44603577D01*
X137214000Y-44313605D01*
X136080000Y-43179605D01*
X134946000Y-44313605D01*
X132881807Y-44313605D01*
X132888072Y-44250000D01*
X132888072Y-43052706D01*
X134186611Y-43052706D01*
X134233275Y-43421075D01*
X134350906Y-43773262D01*
X134476423Y-44008086D01*
X134766395Y-44134000D01*
X135900395Y-43000000D01*
X136259605Y-43000000D01*
X137393605Y-44134000D01*
X137683577Y-44008086D01*
X137687613Y-44000000D01*
X144411928Y-44000000D01*
X144415000Y-44714250D01*
X144573750Y-44873000D01*
X145873000Y-44873000D01*
X145873000Y-43523750D01*
X145714250Y-43365000D01*
X145050000Y-43361928D01*
X144925518Y-43374188D01*
X144805820Y-43410498D01*
X144695506Y-43469463D01*
X144598815Y-43548815D01*
X144519463Y-43645506D01*
X144460498Y-43755820D01*
X144424188Y-43875518D01*
X144411928Y-44000000D01*
X137687613Y-44000000D01*
X137849433Y-43675874D01*
X137947290Y-43317688D01*
X137973389Y-42947294D01*
X137926725Y-42578925D01*
X137809094Y-42226738D01*
X137683577Y-41991914D01*
X137393605Y-41866000D01*
X136259605Y-43000000D01*
X135900395Y-43000000D01*
X134766395Y-41866000D01*
X134476423Y-41991914D01*
X134310567Y-42324126D01*
X134212710Y-42682312D01*
X134186611Y-43052706D01*
X132888072Y-43052706D01*
X132888072Y-41750000D01*
X132881808Y-41686395D01*
X134946000Y-41686395D01*
X136080000Y-42820395D01*
X137214000Y-41686395D01*
X137194716Y-41641984D01*
X153765000Y-41641984D01*
X153765000Y-42358016D01*
X153904691Y-43060290D01*
X154178705Y-43721818D01*
X154576511Y-44317177D01*
X155082823Y-44823489D01*
X155678182Y-45221295D01*
X156339710Y-45495309D01*
X157041984Y-45635000D01*
X157758016Y-45635000D01*
X158460290Y-45495309D01*
X159121818Y-45221295D01*
X159717177Y-44823489D01*
X160223489Y-44317177D01*
X160621295Y-43721818D01*
X160895309Y-43060290D01*
X161035000Y-42358016D01*
X161035000Y-41641984D01*
X160895309Y-40939710D01*
X160621295Y-40278182D01*
X160223489Y-39682823D01*
X159717177Y-39176511D01*
X159121818Y-38778705D01*
X158460290Y-38504691D01*
X157758016Y-38365000D01*
X157041984Y-38365000D01*
X156339710Y-38504691D01*
X155678182Y-38778705D01*
X155082823Y-39176511D01*
X154576511Y-39682823D01*
X154178705Y-40278182D01*
X153904691Y-40939710D01*
X153765000Y-41641984D01*
X137194716Y-41641984D01*
X137088086Y-41396423D01*
X136755874Y-41230567D01*
X136397688Y-41132710D01*
X136027294Y-41106611D01*
X135658925Y-41153275D01*
X135306738Y-41270906D01*
X135071914Y-41396423D01*
X134946000Y-41686395D01*
X132881808Y-41686395D01*
X132875812Y-41625518D01*
X132839502Y-41505820D01*
X132780537Y-41395506D01*
X132701185Y-41298815D01*
X132604494Y-41219463D01*
X132494180Y-41160498D01*
X132374482Y-41124188D01*
X132250000Y-41111928D01*
X129750000Y-41111928D01*
X129625518Y-41124188D01*
X129505820Y-41160498D01*
X129395506Y-41219463D01*
X129298815Y-41298815D01*
X129219463Y-41395506D01*
X129160498Y-41505820D01*
X129124188Y-41625518D01*
X129111928Y-41750000D01*
X129111928Y-44250000D01*
X129124188Y-44374482D01*
X129160498Y-44494180D01*
X129219463Y-44604494D01*
X129298815Y-44701185D01*
X129395506Y-44780537D01*
X129505820Y-44839502D01*
X129625518Y-44875812D01*
X129750000Y-44888072D01*
X130190000Y-44888072D01*
X130190000Y-45664487D01*
X118760083Y-57094405D01*
X118727271Y-57100932D01*
X118557111Y-57171414D01*
X118403972Y-57273738D01*
X118273738Y-57403972D01*
X118171414Y-57557111D01*
X118100932Y-57727271D01*
X118065000Y-57907911D01*
X105010000Y-57907911D01*
X105010000Y-41641984D01*
X105665000Y-41641984D01*
X105665000Y-42358016D01*
X105804691Y-43060290D01*
X106078705Y-43721818D01*
X106476511Y-44317177D01*
X106982823Y-44823489D01*
X107578182Y-45221295D01*
X108239710Y-45495309D01*
X108941984Y-45635000D01*
X109658016Y-45635000D01*
X110360290Y-45495309D01*
X111021818Y-45221295D01*
X111617177Y-44823489D01*
X112123489Y-44317177D01*
X112521295Y-43721818D01*
X112795309Y-43060290D01*
X112935000Y-42358016D01*
X112935000Y-41641984D01*
X112795309Y-40939710D01*
X112521295Y-40278182D01*
X112123489Y-39682823D01*
X111617177Y-39176511D01*
X111021818Y-38778705D01*
X110360290Y-38504691D01*
X109658016Y-38365000D01*
X108941984Y-38365000D01*
X108239710Y-38504691D01*
X107578182Y-38778705D01*
X106982823Y-39176511D01*
X106476511Y-39682823D01*
X106078705Y-40278182D01*
X105804691Y-40939710D01*
X105665000Y-41641984D01*
X105010000Y-41641984D01*
X105010000Y-38010000D01*
X161290001Y-38010000D01*
X161290001Y-38265115D01*
G36*
X120364750Y-140048000D02*
G01*
X120968000Y-140048000D01*
X120968000Y-140038200D01*
X121222000Y-140038200D01*
X121222000Y-140048000D01*
X121242000Y-140048000D01*
X121242000Y-140302000D01*
X121222000Y-140302000D01*
X121222000Y-140322000D01*
X120968000Y-140322000D01*
X120968000Y-140302000D01*
X120364750Y-140302000D01*
X120206000Y-140460750D01*
X120204667Y-140583855D01*
X120076199Y-140455387D01*
X120050828Y-140424472D01*
X119927489Y-140323251D01*
X119786773Y-140248037D01*
X119726221Y-140229668D01*
X119725812Y-140225518D01*
X119689502Y-140105820D01*
X119653358Y-140038200D01*
X120354950Y-140038200D01*
X120364750Y-140048000D01*
X120364750Y-140048000D01*
G37*
X120364750Y-140048000D02*
X120968000Y-140048000D01*
X120968000Y-140038200D01*
X121222000Y-140038200D01*
X121222000Y-140048000D01*
X121242000Y-140048000D01*
X121242000Y-140302000D01*
X121222000Y-140302000D01*
X121222000Y-140322000D01*
X120968000Y-140322000D01*
X120968000Y-140302000D01*
X120364750Y-140302000D01*
X120206000Y-140460750D01*
X120204667Y-140583855D01*
X120076199Y-140455387D01*
X120050828Y-140424472D01*
X119927489Y-140323251D01*
X119786773Y-140248037D01*
X119726221Y-140229668D01*
X119725812Y-140225518D01*
X119689502Y-140105820D01*
X119653358Y-140038200D01*
X120354950Y-140038200D01*
X120364750Y-140048000D01*
M02*
