G04 #@! TF.GenerationSoftware,KiCad,Pcbnew,(5.1.0-0)*
G04 #@! TF.CreationDate,2019-04-30T21:56:08-04:00*
G04 #@! TF.ProjectId,The Ear Tool,54686520-4561-4722-9054-6f6f6c2e6b69,1.3*
G04 #@! TF.SameCoordinates,Original*
G04 #@! TF.FileFunction,Profile,NP*
%FSLAX46Y46*%
G04 Gerber Fmt 4.6, Leading zero omitted, Abs format (unit mm)*
G04 Created by KiCad (PCBNEW (5.1.0-0)) date 2019-04-30 21:56:08*
%MOMM*%
%LPD*%
G04 APERTURE LIST*
%ADD10C,0.150000*%
G04 APERTURE END LIST*
D10*
X162000000Y-145000000D02*
X161000000Y-145000000D01*
X162000000Y-144000000D02*
X162000000Y-145000000D01*
X104300000Y-145000000D02*
X105300000Y-145000000D01*
X104300000Y-144000000D02*
X104300000Y-145000000D01*
X162000000Y-37300000D02*
X162000000Y-38300000D01*
X161000000Y-37300000D02*
X162000000Y-37300000D01*
X104300000Y-37300000D02*
X104300000Y-38300000D01*
X105300000Y-37300000D02*
X104300000Y-37300000D01*
X121000000Y-118000000D02*
X121000000Y-117000000D01*
X139000000Y-125000000D02*
X128000000Y-125000000D01*
X146000000Y-117000000D02*
X146000000Y-118000000D01*
X128000000Y-110000000D02*
X139000000Y-110000000D01*
X128000000Y-110000000D02*
G75*
G03X121000000Y-117000000I0J-7000000D01*
G01*
X121000000Y-118000000D02*
G75*
G03X128000000Y-125000000I7000000J0D01*
G01*
X139000000Y-125000000D02*
G75*
G03X146000000Y-118000000I0J7000000D01*
G01*
X146000000Y-117000000D02*
G75*
G03X139000000Y-110000000I-7000000J0D01*
G01*
X104300000Y-144000000D02*
X104300000Y-38300000D01*
X161000000Y-145000000D02*
X105300000Y-145000000D01*
X162000000Y-38300000D02*
X162000000Y-144000000D01*
X105300000Y-37300000D02*
X161000000Y-37300000D01*
M02*
