G04 #@! TF.GenerationSoftware,KiCad,Pcbnew,(5.1.0-0)*
G04 #@! TF.CreationDate,2019-04-30T21:56:07-04:00*
G04 #@! TF.ProjectId,The Ear Tool,54686520-4561-4722-9054-6f6f6c2e6b69,1.3*
G04 #@! TF.SameCoordinates,Original*
G04 #@! TF.FileFunction,Copper,L1,Top*
G04 #@! TF.FilePolarity,Positive*
%FSLAX46Y46*%
G04 Gerber Fmt 4.6, Leading zero omitted, Abs format (unit mm)*
G04 Created by KiCad (PCBNEW (5.1.0-0)) date 2019-04-30 21:56:07*
%MOMM*%
%LPD*%
G04 APERTURE LIST*
%ADD10R,1.900000X2.000000*%
%ADD11C,1.900000*%
%ADD12C,1.600000*%
%ADD13C,6.000000*%
%ADD14C,2.000000*%
%ADD15O,2.200000X3.700000*%
%ADD16R,2.700000X1.800000*%
%ADD17R,1.800000X2.700000*%
%ADD18R,2.500000X2.500000*%
%ADD19C,2.500000*%
%ADD20C,0.600000*%
%ADD21C,0.350000*%
%ADD22C,0.254000*%
G04 APERTURE END LIST*
D10*
X146000000Y-45000000D03*
D11*
X148540000Y-45000000D03*
D12*
X152750000Y-65000000D03*
X152750000Y-62000000D03*
X152750000Y-59000000D03*
X141750000Y-65000000D03*
X141750000Y-62000000D03*
X141750000Y-59000000D03*
D13*
X109300000Y-42000000D03*
X157400000Y-42000000D03*
X109300000Y-140300000D03*
X157400000Y-140300000D03*
D14*
X113500000Y-68500000D03*
X116000000Y-68500000D03*
X118500000Y-68500000D03*
D15*
X110750000Y-61000000D03*
X121250000Y-61000000D03*
D16*
X133500000Y-140500000D03*
D17*
X128500000Y-135500000D03*
X131000000Y-135500000D03*
X136000000Y-135500000D03*
X138500000Y-135500000D03*
D18*
X131000000Y-43000000D03*
D19*
X136080000Y-43000000D03*
D12*
X130750000Y-65000000D03*
X130750000Y-62000000D03*
X130750000Y-59000000D03*
D20*
X119000000Y-58000000D03*
D21*
X118500000Y-68500000D02*
X118500000Y-58500000D01*
X118500000Y-58500000D02*
X119000000Y-58000000D01*
D22*
G36*
X161290001Y-38265115D02*
G01*
X161290000Y-38265124D01*
X161290001Y-143965114D01*
X161290000Y-143965124D01*
X161290000Y-144290000D01*
X105010000Y-144290000D01*
X105010000Y-139941984D01*
X105665000Y-139941984D01*
X105665000Y-140658016D01*
X105804691Y-141360290D01*
X106078705Y-142021818D01*
X106476511Y-142617177D01*
X106982823Y-143123489D01*
X107578182Y-143521295D01*
X108239710Y-143795309D01*
X108941984Y-143935000D01*
X109658016Y-143935000D01*
X110360290Y-143795309D01*
X111021818Y-143521295D01*
X111617177Y-143123489D01*
X112123489Y-142617177D01*
X112521295Y-142021818D01*
X112795309Y-141360290D01*
X112935000Y-140658016D01*
X112935000Y-140378363D01*
X127265000Y-140378363D01*
X127265000Y-140621637D01*
X127312460Y-140860236D01*
X127405557Y-141084992D01*
X127540713Y-141287267D01*
X127712733Y-141459287D01*
X127915008Y-141594443D01*
X127988779Y-141625000D01*
X127915008Y-141655557D01*
X127712733Y-141790713D01*
X127540713Y-141962733D01*
X127405557Y-142165008D01*
X127312460Y-142389764D01*
X127265000Y-142628363D01*
X127265000Y-142871637D01*
X127312460Y-143110236D01*
X127405557Y-143334992D01*
X127540713Y-143537267D01*
X127712733Y-143709287D01*
X127915008Y-143844443D01*
X128139764Y-143937540D01*
X128378363Y-143985000D01*
X128621637Y-143985000D01*
X128860236Y-143937540D01*
X129084992Y-143844443D01*
X129287267Y-143709287D01*
X129459287Y-143537267D01*
X129594443Y-143334992D01*
X129687540Y-143110236D01*
X129735000Y-142871637D01*
X129735000Y-142628363D01*
X129687540Y-142389764D01*
X129594443Y-142165008D01*
X129459287Y-141962733D01*
X129287267Y-141790713D01*
X129084992Y-141655557D01*
X129011221Y-141625000D01*
X129084992Y-141594443D01*
X129287267Y-141459287D01*
X129459287Y-141287267D01*
X129594443Y-141084992D01*
X129687540Y-140860236D01*
X129735000Y-140621637D01*
X129735000Y-140378363D01*
X129687540Y-140139764D01*
X129594443Y-139915008D01*
X129459287Y-139712733D01*
X129346554Y-139600000D01*
X131511928Y-139600000D01*
X131511928Y-141400000D01*
X131524188Y-141524482D01*
X131560498Y-141644180D01*
X131619463Y-141754494D01*
X131698815Y-141851185D01*
X131795506Y-141930537D01*
X131905820Y-141989502D01*
X132025518Y-142025812D01*
X132150000Y-142038072D01*
X134850000Y-142038072D01*
X134974482Y-142025812D01*
X135094180Y-141989502D01*
X135204494Y-141930537D01*
X135301185Y-141851185D01*
X135380537Y-141754494D01*
X135439502Y-141644180D01*
X135475812Y-141524482D01*
X135488072Y-141400000D01*
X135488072Y-140378363D01*
X137265000Y-140378363D01*
X137265000Y-140621637D01*
X137312460Y-140860236D01*
X137405557Y-141084992D01*
X137540713Y-141287267D01*
X137712733Y-141459287D01*
X137915008Y-141594443D01*
X137988779Y-141625000D01*
X137915008Y-141655557D01*
X137712733Y-141790713D01*
X137540713Y-141962733D01*
X137405557Y-142165008D01*
X137312460Y-142389764D01*
X137265000Y-142628363D01*
X137265000Y-142871637D01*
X137312460Y-143110236D01*
X137405557Y-143334992D01*
X137540713Y-143537267D01*
X137712733Y-143709287D01*
X137915008Y-143844443D01*
X138139764Y-143937540D01*
X138378363Y-143985000D01*
X138621637Y-143985000D01*
X138860236Y-143937540D01*
X139084992Y-143844443D01*
X139287267Y-143709287D01*
X139459287Y-143537267D01*
X139594443Y-143334992D01*
X139687540Y-143110236D01*
X139735000Y-142871637D01*
X139735000Y-142628363D01*
X139687540Y-142389764D01*
X139594443Y-142165008D01*
X139459287Y-141962733D01*
X139287267Y-141790713D01*
X139084992Y-141655557D01*
X139011221Y-141625000D01*
X139084992Y-141594443D01*
X139287267Y-141459287D01*
X139459287Y-141287267D01*
X139594443Y-141084992D01*
X139687540Y-140860236D01*
X139735000Y-140621637D01*
X139735000Y-140378363D01*
X139687540Y-140139764D01*
X139605617Y-139941984D01*
X153765000Y-139941984D01*
X153765000Y-140658016D01*
X153904691Y-141360290D01*
X154178705Y-142021818D01*
X154576511Y-142617177D01*
X155082823Y-143123489D01*
X155678182Y-143521295D01*
X156339710Y-143795309D01*
X157041984Y-143935000D01*
X157758016Y-143935000D01*
X158460290Y-143795309D01*
X159121818Y-143521295D01*
X159717177Y-143123489D01*
X160223489Y-142617177D01*
X160621295Y-142021818D01*
X160895309Y-141360290D01*
X161035000Y-140658016D01*
X161035000Y-139941984D01*
X160895309Y-139239710D01*
X160621295Y-138578182D01*
X160223489Y-137982823D01*
X159717177Y-137476511D01*
X159121818Y-137078705D01*
X158460290Y-136804691D01*
X157758016Y-136665000D01*
X157041984Y-136665000D01*
X156339710Y-136804691D01*
X155678182Y-137078705D01*
X155082823Y-137476511D01*
X154576511Y-137982823D01*
X154178705Y-138578182D01*
X153904691Y-139239710D01*
X153765000Y-139941984D01*
X139605617Y-139941984D01*
X139594443Y-139915008D01*
X139459287Y-139712733D01*
X139287267Y-139540713D01*
X139084992Y-139405557D01*
X138860236Y-139312460D01*
X138621637Y-139265000D01*
X138378363Y-139265000D01*
X138139764Y-139312460D01*
X137915008Y-139405557D01*
X137712733Y-139540713D01*
X137540713Y-139712733D01*
X137405557Y-139915008D01*
X137312460Y-140139764D01*
X137265000Y-140378363D01*
X135488072Y-140378363D01*
X135488072Y-139600000D01*
X135475812Y-139475518D01*
X135439502Y-139355820D01*
X135380537Y-139245506D01*
X135301185Y-139148815D01*
X135204494Y-139069463D01*
X135094180Y-139010498D01*
X134974482Y-138974188D01*
X134850000Y-138961928D01*
X132150000Y-138961928D01*
X132025518Y-138974188D01*
X131905820Y-139010498D01*
X131795506Y-139069463D01*
X131698815Y-139148815D01*
X131619463Y-139245506D01*
X131560498Y-139355820D01*
X131524188Y-139475518D01*
X131511928Y-139600000D01*
X129346554Y-139600000D01*
X129287267Y-139540713D01*
X129084992Y-139405557D01*
X128860236Y-139312460D01*
X128621637Y-139265000D01*
X128378363Y-139265000D01*
X128139764Y-139312460D01*
X127915008Y-139405557D01*
X127712733Y-139540713D01*
X127540713Y-139712733D01*
X127405557Y-139915008D01*
X127312460Y-140139764D01*
X127265000Y-140378363D01*
X112935000Y-140378363D01*
X112935000Y-139941984D01*
X112795309Y-139239710D01*
X112521295Y-138578182D01*
X112123489Y-137982823D01*
X111617177Y-137476511D01*
X111021818Y-137078705D01*
X110360290Y-136804691D01*
X109658016Y-136665000D01*
X108941984Y-136665000D01*
X108239710Y-136804691D01*
X107578182Y-137078705D01*
X106982823Y-137476511D01*
X106476511Y-137982823D01*
X106078705Y-138578182D01*
X105804691Y-139239710D01*
X105665000Y-139941984D01*
X105010000Y-139941984D01*
X105010000Y-134150000D01*
X126961928Y-134150000D01*
X126961928Y-136850000D01*
X126974188Y-136974482D01*
X127010498Y-137094180D01*
X127069463Y-137204494D01*
X127148815Y-137301185D01*
X127245506Y-137380537D01*
X127355820Y-137439502D01*
X127475518Y-137475812D01*
X127600000Y-137488072D01*
X129400000Y-137488072D01*
X129524482Y-137475812D01*
X129644180Y-137439502D01*
X129750000Y-137382939D01*
X129855820Y-137439502D01*
X129975518Y-137475812D01*
X130100000Y-137488072D01*
X131900000Y-137488072D01*
X132024482Y-137475812D01*
X132144180Y-137439502D01*
X132254494Y-137380537D01*
X132351185Y-137301185D01*
X132430537Y-137204494D01*
X132489502Y-137094180D01*
X132525812Y-136974482D01*
X132538072Y-136850000D01*
X132538072Y-136283314D01*
X132540713Y-136287267D01*
X132712733Y-136459287D01*
X132915008Y-136594443D01*
X133139764Y-136687540D01*
X133378363Y-136735000D01*
X133621637Y-136735000D01*
X133860236Y-136687540D01*
X134084992Y-136594443D01*
X134287267Y-136459287D01*
X134459287Y-136287267D01*
X134461928Y-136283314D01*
X134461928Y-136850000D01*
X134474188Y-136974482D01*
X134510498Y-137094180D01*
X134569463Y-137204494D01*
X134648815Y-137301185D01*
X134745506Y-137380537D01*
X134855820Y-137439502D01*
X134975518Y-137475812D01*
X135100000Y-137488072D01*
X136900000Y-137488072D01*
X137024482Y-137475812D01*
X137144180Y-137439502D01*
X137250000Y-137382939D01*
X137355820Y-137439502D01*
X137475518Y-137475812D01*
X137600000Y-137488072D01*
X139400000Y-137488072D01*
X139524482Y-137475812D01*
X139644180Y-137439502D01*
X139754494Y-137380537D01*
X139851185Y-137301185D01*
X139930537Y-137204494D01*
X139989502Y-137094180D01*
X140025812Y-136974482D01*
X140038072Y-136850000D01*
X140038072Y-134150000D01*
X140025812Y-134025518D01*
X139989502Y-133905820D01*
X139930537Y-133795506D01*
X139851185Y-133698815D01*
X139754494Y-133619463D01*
X139644180Y-133560498D01*
X139524482Y-133524188D01*
X139400000Y-133511928D01*
X137600000Y-133511928D01*
X137475518Y-133524188D01*
X137355820Y-133560498D01*
X137250000Y-133617061D01*
X137144180Y-133560498D01*
X137024482Y-133524188D01*
X136900000Y-133511928D01*
X135100000Y-133511928D01*
X134975518Y-133524188D01*
X134855820Y-133560498D01*
X134745506Y-133619463D01*
X134648815Y-133698815D01*
X134569463Y-133795506D01*
X134510498Y-133905820D01*
X134474188Y-134025518D01*
X134461928Y-134150000D01*
X134461928Y-134716686D01*
X134459287Y-134712733D01*
X134287267Y-134540713D01*
X134084992Y-134405557D01*
X133860236Y-134312460D01*
X133621637Y-134265000D01*
X133378363Y-134265000D01*
X133139764Y-134312460D01*
X132915008Y-134405557D01*
X132712733Y-134540713D01*
X132540713Y-134712733D01*
X132538072Y-134716686D01*
X132538072Y-134150000D01*
X132525812Y-134025518D01*
X132489502Y-133905820D01*
X132430537Y-133795506D01*
X132351185Y-133698815D01*
X132254494Y-133619463D01*
X132144180Y-133560498D01*
X132024482Y-133524188D01*
X131900000Y-133511928D01*
X130100000Y-133511928D01*
X129975518Y-133524188D01*
X129855820Y-133560498D01*
X129750000Y-133617061D01*
X129644180Y-133560498D01*
X129524482Y-133524188D01*
X129400000Y-133511928D01*
X127600000Y-133511928D01*
X127475518Y-133524188D01*
X127355820Y-133560498D01*
X127245506Y-133619463D01*
X127148815Y-133698815D01*
X127069463Y-133795506D01*
X127010498Y-133905820D01*
X126974188Y-134025518D01*
X126961928Y-134150000D01*
X105010000Y-134150000D01*
X105010000Y-118034876D01*
X120290000Y-118034876D01*
X120291521Y-118050316D01*
X120317313Y-118641059D01*
X120321135Y-118673352D01*
X120323122Y-118705834D01*
X120325870Y-118724218D01*
X120492644Y-119748246D01*
X120502760Y-119790382D01*
X120511775Y-119832796D01*
X120517208Y-119850564D01*
X120517210Y-119850573D01*
X120517213Y-119850581D01*
X120833512Y-120838699D01*
X120849740Y-120878863D01*
X120864931Y-120919494D01*
X120872933Y-120936271D01*
X121331816Y-121866793D01*
X121353798Y-121904111D01*
X121374832Y-121942057D01*
X121385227Y-121957467D01*
X121976608Y-122809940D01*
X122003881Y-122843619D01*
X122030277Y-122878019D01*
X122042835Y-122891723D01*
X122753726Y-123647421D01*
X122785675Y-123676697D01*
X122816867Y-123706819D01*
X122831312Y-123718516D01*
X123646093Y-124360838D01*
X123682017Y-124385069D01*
X123717320Y-124410250D01*
X123733336Y-124419684D01*
X124634108Y-124934518D01*
X124673211Y-124953169D01*
X124711857Y-124972860D01*
X124729091Y-124979823D01*
X125696067Y-125355859D01*
X125737520Y-125368532D01*
X125778629Y-125382287D01*
X125796703Y-125386626D01*
X126808639Y-125615604D01*
X126851489Y-125622008D01*
X126894200Y-125629539D01*
X126912717Y-125631159D01*
X127938911Y-125707418D01*
X127965123Y-125710000D01*
X139034877Y-125710000D01*
X139050318Y-125708479D01*
X139641059Y-125682687D01*
X139673352Y-125678865D01*
X139705834Y-125676878D01*
X139724218Y-125674130D01*
X140748246Y-125507356D01*
X140790382Y-125497240D01*
X140832796Y-125488225D01*
X140850564Y-125482792D01*
X140850573Y-125482790D01*
X140850581Y-125482787D01*
X141838699Y-125166488D01*
X141878863Y-125150260D01*
X141919494Y-125135069D01*
X141936271Y-125127067D01*
X142866793Y-124668184D01*
X142904111Y-124646202D01*
X142942057Y-124625168D01*
X142957467Y-124614773D01*
X143809940Y-124023392D01*
X143843619Y-123996119D01*
X143878019Y-123969723D01*
X143891723Y-123957165D01*
X144647421Y-123246274D01*
X144676697Y-123214325D01*
X144706819Y-123183133D01*
X144718516Y-123168688D01*
X145360838Y-122353907D01*
X145385069Y-122317983D01*
X145410250Y-122282680D01*
X145419684Y-122266664D01*
X145934518Y-121365892D01*
X145953169Y-121326789D01*
X145972860Y-121288143D01*
X145979823Y-121270909D01*
X146355859Y-120303933D01*
X146368532Y-120262480D01*
X146382287Y-120221371D01*
X146386626Y-120203297D01*
X146615604Y-119191361D01*
X146622008Y-119148511D01*
X146629539Y-119105800D01*
X146631159Y-119087283D01*
X146707418Y-118061089D01*
X146710000Y-118034877D01*
X146710000Y-116965123D01*
X146708479Y-116949682D01*
X146682687Y-116358940D01*
X146678865Y-116326646D01*
X146676878Y-116294166D01*
X146674130Y-116275783D01*
X146507356Y-115251754D01*
X146497241Y-115209621D01*
X146488225Y-115167204D01*
X146482790Y-115149428D01*
X146166488Y-114161301D01*
X146150263Y-114121144D01*
X146135069Y-114080505D01*
X146127066Y-114063729D01*
X145668184Y-113133206D01*
X145646182Y-113095855D01*
X145625167Y-113057943D01*
X145614773Y-113042533D01*
X145023391Y-112190059D01*
X144996121Y-112156384D01*
X144969723Y-112121981D01*
X144957165Y-112108277D01*
X144246274Y-111352579D01*
X144214333Y-111323311D01*
X144183133Y-111293181D01*
X144168688Y-111281484D01*
X143353907Y-110639162D01*
X143317980Y-110614929D01*
X143282679Y-110589749D01*
X143266664Y-110580316D01*
X142365892Y-110065482D01*
X142326789Y-110046831D01*
X142288143Y-110027140D01*
X142270909Y-110020177D01*
X141303933Y-109644141D01*
X141262487Y-109631470D01*
X141221372Y-109617713D01*
X141203297Y-109613374D01*
X140191361Y-109384396D01*
X140148511Y-109377992D01*
X140105800Y-109370461D01*
X140087283Y-109368841D01*
X139061089Y-109292582D01*
X139034877Y-109290000D01*
X127965123Y-109290000D01*
X127949682Y-109291521D01*
X127358940Y-109317313D01*
X127326646Y-109321135D01*
X127294166Y-109323122D01*
X127275783Y-109325870D01*
X126251754Y-109492644D01*
X126209621Y-109502759D01*
X126167204Y-109511775D01*
X126149428Y-109517210D01*
X125161301Y-109833512D01*
X125121144Y-109849737D01*
X125080505Y-109864931D01*
X125063729Y-109872934D01*
X124133206Y-110331816D01*
X124095855Y-110353818D01*
X124057943Y-110374833D01*
X124042533Y-110385227D01*
X123190059Y-110976609D01*
X123156384Y-111003879D01*
X123121981Y-111030277D01*
X123108277Y-111042835D01*
X122352579Y-111753726D01*
X122323311Y-111785667D01*
X122293181Y-111816867D01*
X122281484Y-111831312D01*
X121639162Y-112646093D01*
X121614929Y-112682020D01*
X121589749Y-112717321D01*
X121580316Y-112733336D01*
X121065482Y-113634108D01*
X121046831Y-113673211D01*
X121027140Y-113711857D01*
X121020177Y-113729091D01*
X120644141Y-114696067D01*
X120631470Y-114737513D01*
X120617713Y-114778628D01*
X120613374Y-114796703D01*
X120384396Y-115808639D01*
X120377992Y-115851489D01*
X120370461Y-115894200D01*
X120368841Y-115912717D01*
X120292579Y-116938952D01*
X120290001Y-116965123D01*
X120290000Y-118034876D01*
X105010000Y-118034876D01*
X105010000Y-69635413D01*
X112544192Y-69635413D01*
X112639956Y-69899814D01*
X112929571Y-70040704D01*
X113241108Y-70122384D01*
X113562595Y-70141718D01*
X113881675Y-70097961D01*
X114186088Y-69992795D01*
X114360044Y-69899814D01*
X114455808Y-69635413D01*
X113500000Y-68679605D01*
X112544192Y-69635413D01*
X105010000Y-69635413D01*
X105010000Y-68562595D01*
X111858282Y-68562595D01*
X111902039Y-68881675D01*
X112007205Y-69186088D01*
X112100186Y-69360044D01*
X112364587Y-69455808D01*
X113320395Y-68500000D01*
X113679605Y-68500000D01*
X114635413Y-69455808D01*
X114665075Y-69445065D01*
X114730013Y-69542252D01*
X114957748Y-69769987D01*
X115225537Y-69948918D01*
X115523088Y-70072168D01*
X115838967Y-70135000D01*
X116161033Y-70135000D01*
X116476912Y-70072168D01*
X116774463Y-69948918D01*
X117042252Y-69769987D01*
X117250000Y-69562239D01*
X117457748Y-69769987D01*
X117725537Y-69948918D01*
X118023088Y-70072168D01*
X118338967Y-70135000D01*
X118661033Y-70135000D01*
X118976912Y-70072168D01*
X119274463Y-69948918D01*
X119542252Y-69769987D01*
X119769987Y-69542252D01*
X119948918Y-69274463D01*
X120072168Y-68976912D01*
X120135000Y-68661033D01*
X120135000Y-68338967D01*
X120072168Y-68023088D01*
X119948918Y-67725537D01*
X119769987Y-67457748D01*
X119542252Y-67230013D01*
X119310000Y-67074827D01*
X119310000Y-64858665D01*
X129315000Y-64858665D01*
X129315000Y-65141335D01*
X129370147Y-65418574D01*
X129478320Y-65679727D01*
X129635363Y-65914759D01*
X129835241Y-66114637D01*
X130070273Y-66271680D01*
X130331426Y-66379853D01*
X130608665Y-66435000D01*
X130891335Y-66435000D01*
X131168574Y-66379853D01*
X131429727Y-66271680D01*
X131664759Y-66114637D01*
X131864637Y-65914759D01*
X132021680Y-65679727D01*
X132129853Y-65418574D01*
X132185000Y-65141335D01*
X132185000Y-64858665D01*
X140315000Y-64858665D01*
X140315000Y-65141335D01*
X140370147Y-65418574D01*
X140478320Y-65679727D01*
X140635363Y-65914759D01*
X140835241Y-66114637D01*
X141070273Y-66271680D01*
X141331426Y-66379853D01*
X141608665Y-66435000D01*
X141891335Y-66435000D01*
X142168574Y-66379853D01*
X142429727Y-66271680D01*
X142664759Y-66114637D01*
X142864637Y-65914759D01*
X143021680Y-65679727D01*
X143129853Y-65418574D01*
X143185000Y-65141335D01*
X143185000Y-64858665D01*
X151315000Y-64858665D01*
X151315000Y-65141335D01*
X151370147Y-65418574D01*
X151478320Y-65679727D01*
X151635363Y-65914759D01*
X151835241Y-66114637D01*
X152070273Y-66271680D01*
X152331426Y-66379853D01*
X152608665Y-66435000D01*
X152891335Y-66435000D01*
X153168574Y-66379853D01*
X153429727Y-66271680D01*
X153664759Y-66114637D01*
X153864637Y-65914759D01*
X154021680Y-65679727D01*
X154129853Y-65418574D01*
X154185000Y-65141335D01*
X154185000Y-64858665D01*
X154129853Y-64581426D01*
X154021680Y-64320273D01*
X153864637Y-64085241D01*
X153664759Y-63885363D01*
X153429727Y-63728320D01*
X153168574Y-63620147D01*
X152891335Y-63565000D01*
X152608665Y-63565000D01*
X152331426Y-63620147D01*
X152070273Y-63728320D01*
X151835241Y-63885363D01*
X151635363Y-64085241D01*
X151478320Y-64320273D01*
X151370147Y-64581426D01*
X151315000Y-64858665D01*
X143185000Y-64858665D01*
X143129853Y-64581426D01*
X143021680Y-64320273D01*
X142864637Y-64085241D01*
X142664759Y-63885363D01*
X142429727Y-63728320D01*
X142168574Y-63620147D01*
X141891335Y-63565000D01*
X141608665Y-63565000D01*
X141331426Y-63620147D01*
X141070273Y-63728320D01*
X140835241Y-63885363D01*
X140635363Y-64085241D01*
X140478320Y-64320273D01*
X140370147Y-64581426D01*
X140315000Y-64858665D01*
X132185000Y-64858665D01*
X132129853Y-64581426D01*
X132021680Y-64320273D01*
X131864637Y-64085241D01*
X131664759Y-63885363D01*
X131429727Y-63728320D01*
X131168574Y-63620147D01*
X130891335Y-63565000D01*
X130608665Y-63565000D01*
X130331426Y-63620147D01*
X130070273Y-63728320D01*
X129835241Y-63885363D01*
X129635363Y-64085241D01*
X129478320Y-64320273D01*
X129370147Y-64581426D01*
X129315000Y-64858665D01*
X119310000Y-64858665D01*
X119310000Y-60164776D01*
X119515000Y-60164776D01*
X119515000Y-61835225D01*
X119540105Y-62090119D01*
X119639315Y-62417168D01*
X119800422Y-62718578D01*
X120017235Y-62982766D01*
X120281423Y-63199579D01*
X120582833Y-63360686D01*
X120909882Y-63459895D01*
X121250000Y-63493394D01*
X121590119Y-63459895D01*
X121917168Y-63360686D01*
X122218578Y-63199579D01*
X122482766Y-62982766D01*
X122699579Y-62718578D01*
X122860686Y-62417168D01*
X122959895Y-62090119D01*
X122982691Y-61858665D01*
X129315000Y-61858665D01*
X129315000Y-62141335D01*
X129370147Y-62418574D01*
X129478320Y-62679727D01*
X129635363Y-62914759D01*
X129835241Y-63114637D01*
X130070273Y-63271680D01*
X130331426Y-63379853D01*
X130608665Y-63435000D01*
X130891335Y-63435000D01*
X131168574Y-63379853D01*
X131429727Y-63271680D01*
X131664759Y-63114637D01*
X131864637Y-62914759D01*
X132021680Y-62679727D01*
X132129853Y-62418574D01*
X132185000Y-62141335D01*
X132185000Y-61858665D01*
X140315000Y-61858665D01*
X140315000Y-62141335D01*
X140370147Y-62418574D01*
X140478320Y-62679727D01*
X140635363Y-62914759D01*
X140835241Y-63114637D01*
X141070273Y-63271680D01*
X141331426Y-63379853D01*
X141608665Y-63435000D01*
X141891335Y-63435000D01*
X142168574Y-63379853D01*
X142429727Y-63271680D01*
X142664759Y-63114637D01*
X142864637Y-62914759D01*
X143021680Y-62679727D01*
X143129853Y-62418574D01*
X143185000Y-62141335D01*
X143185000Y-61858665D01*
X151315000Y-61858665D01*
X151315000Y-62141335D01*
X151370147Y-62418574D01*
X151478320Y-62679727D01*
X151635363Y-62914759D01*
X151835241Y-63114637D01*
X152070273Y-63271680D01*
X152331426Y-63379853D01*
X152608665Y-63435000D01*
X152891335Y-63435000D01*
X153168574Y-63379853D01*
X153429727Y-63271680D01*
X153664759Y-63114637D01*
X153864637Y-62914759D01*
X154021680Y-62679727D01*
X154129853Y-62418574D01*
X154185000Y-62141335D01*
X154185000Y-61858665D01*
X154129853Y-61581426D01*
X154021680Y-61320273D01*
X153864637Y-61085241D01*
X153664759Y-60885363D01*
X153429727Y-60728320D01*
X153168574Y-60620147D01*
X152891335Y-60565000D01*
X152608665Y-60565000D01*
X152331426Y-60620147D01*
X152070273Y-60728320D01*
X151835241Y-60885363D01*
X151635363Y-61085241D01*
X151478320Y-61320273D01*
X151370147Y-61581426D01*
X151315000Y-61858665D01*
X143185000Y-61858665D01*
X143129853Y-61581426D01*
X143021680Y-61320273D01*
X142864637Y-61085241D01*
X142664759Y-60885363D01*
X142429727Y-60728320D01*
X142168574Y-60620147D01*
X141891335Y-60565000D01*
X141608665Y-60565000D01*
X141331426Y-60620147D01*
X141070273Y-60728320D01*
X140835241Y-60885363D01*
X140635363Y-61085241D01*
X140478320Y-61320273D01*
X140370147Y-61581426D01*
X140315000Y-61858665D01*
X132185000Y-61858665D01*
X132129853Y-61581426D01*
X132021680Y-61320273D01*
X131864637Y-61085241D01*
X131664759Y-60885363D01*
X131429727Y-60728320D01*
X131168574Y-60620147D01*
X130891335Y-60565000D01*
X130608665Y-60565000D01*
X130331426Y-60620147D01*
X130070273Y-60728320D01*
X129835241Y-60885363D01*
X129635363Y-61085241D01*
X129478320Y-61320273D01*
X129370147Y-61581426D01*
X129315000Y-61858665D01*
X122982691Y-61858665D01*
X122985000Y-61835225D01*
X122985000Y-60164775D01*
X122959895Y-59909881D01*
X122860686Y-59582832D01*
X122699579Y-59281422D01*
X122482766Y-59017234D01*
X122289548Y-58858665D01*
X129315000Y-58858665D01*
X129315000Y-59141335D01*
X129370147Y-59418574D01*
X129478320Y-59679727D01*
X129635363Y-59914759D01*
X129835241Y-60114637D01*
X130070273Y-60271680D01*
X130331426Y-60379853D01*
X130608665Y-60435000D01*
X130891335Y-60435000D01*
X131168574Y-60379853D01*
X131429727Y-60271680D01*
X131664759Y-60114637D01*
X131786694Y-59992702D01*
X140936903Y-59992702D01*
X141008486Y-60236671D01*
X141263996Y-60357571D01*
X141538184Y-60426300D01*
X141820512Y-60440217D01*
X142100130Y-60398787D01*
X142366292Y-60303603D01*
X142491514Y-60236671D01*
X142563097Y-59992702D01*
X141750000Y-59179605D01*
X140936903Y-59992702D01*
X131786694Y-59992702D01*
X131864637Y-59914759D01*
X132021680Y-59679727D01*
X132129853Y-59418574D01*
X132185000Y-59141335D01*
X132185000Y-59070512D01*
X140309783Y-59070512D01*
X140351213Y-59350130D01*
X140446397Y-59616292D01*
X140513329Y-59741514D01*
X140757298Y-59813097D01*
X141570395Y-59000000D01*
X141929605Y-59000000D01*
X142742702Y-59813097D01*
X142986671Y-59741514D01*
X143107571Y-59486004D01*
X143176300Y-59211816D01*
X143190217Y-58929488D01*
X143179724Y-58858665D01*
X151315000Y-58858665D01*
X151315000Y-59141335D01*
X151370147Y-59418574D01*
X151478320Y-59679727D01*
X151635363Y-59914759D01*
X151835241Y-60114637D01*
X152070273Y-60271680D01*
X152331426Y-60379853D01*
X152608665Y-60435000D01*
X152891335Y-60435000D01*
X153168574Y-60379853D01*
X153429727Y-60271680D01*
X153664759Y-60114637D01*
X153864637Y-59914759D01*
X154021680Y-59679727D01*
X154129853Y-59418574D01*
X154185000Y-59141335D01*
X154185000Y-58858665D01*
X154129853Y-58581426D01*
X154021680Y-58320273D01*
X153864637Y-58085241D01*
X153664759Y-57885363D01*
X153429727Y-57728320D01*
X153168574Y-57620147D01*
X152891335Y-57565000D01*
X152608665Y-57565000D01*
X152331426Y-57620147D01*
X152070273Y-57728320D01*
X151835241Y-57885363D01*
X151635363Y-58085241D01*
X151478320Y-58320273D01*
X151370147Y-58581426D01*
X151315000Y-58858665D01*
X143179724Y-58858665D01*
X143148787Y-58649870D01*
X143053603Y-58383708D01*
X142986671Y-58258486D01*
X142742702Y-58186903D01*
X141929605Y-59000000D01*
X141570395Y-59000000D01*
X140757298Y-58186903D01*
X140513329Y-58258486D01*
X140392429Y-58513996D01*
X140323700Y-58788184D01*
X140309783Y-59070512D01*
X132185000Y-59070512D01*
X132185000Y-58858665D01*
X132129853Y-58581426D01*
X132021680Y-58320273D01*
X131864637Y-58085241D01*
X131786694Y-58007298D01*
X140936903Y-58007298D01*
X141750000Y-58820395D01*
X142563097Y-58007298D01*
X142491514Y-57763329D01*
X142236004Y-57642429D01*
X141961816Y-57573700D01*
X141679488Y-57559783D01*
X141399870Y-57601213D01*
X141133708Y-57696397D01*
X141008486Y-57763329D01*
X140936903Y-58007298D01*
X131786694Y-58007298D01*
X131664759Y-57885363D01*
X131429727Y-57728320D01*
X131168574Y-57620147D01*
X130891335Y-57565000D01*
X130608665Y-57565000D01*
X130331426Y-57620147D01*
X130070273Y-57728320D01*
X129835241Y-57885363D01*
X129635363Y-58085241D01*
X129478320Y-58320273D01*
X129370147Y-58581426D01*
X129315000Y-58858665D01*
X122289548Y-58858665D01*
X122218577Y-58800421D01*
X121917167Y-58639314D01*
X121590118Y-58540105D01*
X121250000Y-58506606D01*
X120909881Y-58540105D01*
X120582832Y-58639314D01*
X120281422Y-58800421D01*
X120017234Y-59017234D01*
X119800421Y-59281423D01*
X119639314Y-59582833D01*
X119540105Y-59909882D01*
X119515000Y-60164776D01*
X119310000Y-60164776D01*
X119310000Y-58883630D01*
X119442889Y-58828586D01*
X119596028Y-58726262D01*
X119726262Y-58596028D01*
X119828586Y-58442889D01*
X119899068Y-58272729D01*
X119935000Y-58092089D01*
X119935000Y-57907911D01*
X119899068Y-57727271D01*
X119828586Y-57557111D01*
X119726262Y-57403972D01*
X119596028Y-57273738D01*
X119442889Y-57171414D01*
X119272729Y-57100932D01*
X119092089Y-57065000D01*
X118907911Y-57065000D01*
X118727271Y-57100932D01*
X118557111Y-57171414D01*
X118403972Y-57273738D01*
X118273738Y-57403972D01*
X118171414Y-57557111D01*
X118100932Y-57727271D01*
X118094405Y-57760083D01*
X117955383Y-57899105D01*
X117924473Y-57924472D01*
X117899108Y-57955380D01*
X117823251Y-58047811D01*
X117748038Y-58188527D01*
X117701721Y-58341213D01*
X117686081Y-58500000D01*
X117690001Y-58539798D01*
X117690000Y-67074827D01*
X117457748Y-67230013D01*
X117250000Y-67437761D01*
X117042252Y-67230013D01*
X116774463Y-67051082D01*
X116476912Y-66927832D01*
X116161033Y-66865000D01*
X115838967Y-66865000D01*
X115523088Y-66927832D01*
X115225537Y-67051082D01*
X114957748Y-67230013D01*
X114730013Y-67457748D01*
X114665075Y-67554935D01*
X114635413Y-67544192D01*
X113679605Y-68500000D01*
X113320395Y-68500000D01*
X112364587Y-67544192D01*
X112100186Y-67639956D01*
X111959296Y-67929571D01*
X111877616Y-68241108D01*
X111858282Y-68562595D01*
X105010000Y-68562595D01*
X105010000Y-67364587D01*
X112544192Y-67364587D01*
X113500000Y-68320395D01*
X114455808Y-67364587D01*
X114360044Y-67100186D01*
X114070429Y-66959296D01*
X113758892Y-66877616D01*
X113437405Y-66858282D01*
X113118325Y-66902039D01*
X112813912Y-67007205D01*
X112639956Y-67100186D01*
X112544192Y-67364587D01*
X105010000Y-67364587D01*
X105010000Y-60164776D01*
X109015000Y-60164776D01*
X109015000Y-61835225D01*
X109040105Y-62090119D01*
X109139315Y-62417168D01*
X109300422Y-62718578D01*
X109517235Y-62982766D01*
X109781423Y-63199579D01*
X110082833Y-63360686D01*
X110409882Y-63459895D01*
X110750000Y-63493394D01*
X111090119Y-63459895D01*
X111417168Y-63360686D01*
X111718578Y-63199579D01*
X111982766Y-62982766D01*
X112199579Y-62718578D01*
X112360686Y-62417168D01*
X112459895Y-62090119D01*
X112485000Y-61835225D01*
X112485000Y-60164775D01*
X112459895Y-59909881D01*
X112360686Y-59582832D01*
X112199579Y-59281422D01*
X111982766Y-59017234D01*
X111718577Y-58800421D01*
X111417167Y-58639314D01*
X111090118Y-58540105D01*
X110750000Y-58506606D01*
X110409881Y-58540105D01*
X110082832Y-58639314D01*
X109781422Y-58800421D01*
X109517234Y-59017234D01*
X109300421Y-59281423D01*
X109139314Y-59582833D01*
X109040105Y-59909882D01*
X109015000Y-60164776D01*
X105010000Y-60164776D01*
X105010000Y-46000000D01*
X144411928Y-46000000D01*
X144424188Y-46124482D01*
X144460498Y-46244180D01*
X144519463Y-46354494D01*
X144598815Y-46451185D01*
X144695506Y-46530537D01*
X144805820Y-46589502D01*
X144925518Y-46625812D01*
X145050000Y-46638072D01*
X145714250Y-46635000D01*
X145873000Y-46476250D01*
X145873000Y-45127000D01*
X144573750Y-45127000D01*
X144415000Y-45285750D01*
X144411928Y-46000000D01*
X105010000Y-46000000D01*
X105010000Y-41641984D01*
X105665000Y-41641984D01*
X105665000Y-42358016D01*
X105804691Y-43060290D01*
X106078705Y-43721818D01*
X106476511Y-44317177D01*
X106982823Y-44823489D01*
X107578182Y-45221295D01*
X108239710Y-45495309D01*
X108941984Y-45635000D01*
X109658016Y-45635000D01*
X110360290Y-45495309D01*
X111021818Y-45221295D01*
X111617177Y-44823489D01*
X112123489Y-44317177D01*
X112521295Y-43721818D01*
X112795309Y-43060290D01*
X112935000Y-42358016D01*
X112935000Y-41750000D01*
X129111928Y-41750000D01*
X129111928Y-44250000D01*
X129124188Y-44374482D01*
X129160498Y-44494180D01*
X129219463Y-44604494D01*
X129298815Y-44701185D01*
X129395506Y-44780537D01*
X129505820Y-44839502D01*
X129625518Y-44875812D01*
X129750000Y-44888072D01*
X132250000Y-44888072D01*
X132374482Y-44875812D01*
X132494180Y-44839502D01*
X132604494Y-44780537D01*
X132701185Y-44701185D01*
X132780537Y-44604494D01*
X132839502Y-44494180D01*
X132875812Y-44374482D01*
X132881807Y-44313605D01*
X134946000Y-44313605D01*
X135071914Y-44603577D01*
X135404126Y-44769433D01*
X135762312Y-44867290D01*
X136132706Y-44893389D01*
X136501075Y-44846725D01*
X136853262Y-44729094D01*
X137088086Y-44603577D01*
X137214000Y-44313605D01*
X136080000Y-43179605D01*
X134946000Y-44313605D01*
X132881807Y-44313605D01*
X132888072Y-44250000D01*
X132888072Y-43052706D01*
X134186611Y-43052706D01*
X134233275Y-43421075D01*
X134350906Y-43773262D01*
X134476423Y-44008086D01*
X134766395Y-44134000D01*
X135900395Y-43000000D01*
X136259605Y-43000000D01*
X137393605Y-44134000D01*
X137683577Y-44008086D01*
X137687613Y-44000000D01*
X144411928Y-44000000D01*
X144415000Y-44714250D01*
X144573750Y-44873000D01*
X145873000Y-44873000D01*
X145873000Y-43523750D01*
X146127000Y-43523750D01*
X146127000Y-44873000D01*
X146147000Y-44873000D01*
X146147000Y-45127000D01*
X146127000Y-45127000D01*
X146127000Y-46476250D01*
X146285750Y-46635000D01*
X146950000Y-46638072D01*
X147074482Y-46625812D01*
X147194180Y-46589502D01*
X147304494Y-46530537D01*
X147401185Y-46451185D01*
X147480537Y-46354494D01*
X147539502Y-46244180D01*
X147541123Y-46238836D01*
X147789221Y-46404609D01*
X148077673Y-46524089D01*
X148383891Y-46585000D01*
X148696109Y-46585000D01*
X149002327Y-46524089D01*
X149290779Y-46404609D01*
X149550379Y-46231150D01*
X149771150Y-46010379D01*
X149944609Y-45750779D01*
X150064089Y-45462327D01*
X150125000Y-45156109D01*
X150125000Y-44843891D01*
X150064089Y-44537673D01*
X149944609Y-44249221D01*
X149771150Y-43989621D01*
X149550379Y-43768850D01*
X149290779Y-43595391D01*
X149002327Y-43475911D01*
X148696109Y-43415000D01*
X148383891Y-43415000D01*
X148077673Y-43475911D01*
X147789221Y-43595391D01*
X147541123Y-43761164D01*
X147539502Y-43755820D01*
X147480537Y-43645506D01*
X147401185Y-43548815D01*
X147304494Y-43469463D01*
X147194180Y-43410498D01*
X147074482Y-43374188D01*
X146950000Y-43361928D01*
X146285750Y-43365000D01*
X146127000Y-43523750D01*
X145873000Y-43523750D01*
X145714250Y-43365000D01*
X145050000Y-43361928D01*
X144925518Y-43374188D01*
X144805820Y-43410498D01*
X144695506Y-43469463D01*
X144598815Y-43548815D01*
X144519463Y-43645506D01*
X144460498Y-43755820D01*
X144424188Y-43875518D01*
X144411928Y-44000000D01*
X137687613Y-44000000D01*
X137849433Y-43675874D01*
X137947290Y-43317688D01*
X137973389Y-42947294D01*
X137926725Y-42578925D01*
X137809094Y-42226738D01*
X137683577Y-41991914D01*
X137393605Y-41866000D01*
X136259605Y-43000000D01*
X135900395Y-43000000D01*
X134766395Y-41866000D01*
X134476423Y-41991914D01*
X134310567Y-42324126D01*
X134212710Y-42682312D01*
X134186611Y-43052706D01*
X132888072Y-43052706D01*
X132888072Y-41750000D01*
X132881808Y-41686395D01*
X134946000Y-41686395D01*
X136080000Y-42820395D01*
X137214000Y-41686395D01*
X137194716Y-41641984D01*
X153765000Y-41641984D01*
X153765000Y-42358016D01*
X153904691Y-43060290D01*
X154178705Y-43721818D01*
X154576511Y-44317177D01*
X155082823Y-44823489D01*
X155678182Y-45221295D01*
X156339710Y-45495309D01*
X157041984Y-45635000D01*
X157758016Y-45635000D01*
X158460290Y-45495309D01*
X159121818Y-45221295D01*
X159717177Y-44823489D01*
X160223489Y-44317177D01*
X160621295Y-43721818D01*
X160895309Y-43060290D01*
X161035000Y-42358016D01*
X161035000Y-41641984D01*
X160895309Y-40939710D01*
X160621295Y-40278182D01*
X160223489Y-39682823D01*
X159717177Y-39176511D01*
X159121818Y-38778705D01*
X158460290Y-38504691D01*
X157758016Y-38365000D01*
X157041984Y-38365000D01*
X156339710Y-38504691D01*
X155678182Y-38778705D01*
X155082823Y-39176511D01*
X154576511Y-39682823D01*
X154178705Y-40278182D01*
X153904691Y-40939710D01*
X153765000Y-41641984D01*
X137194716Y-41641984D01*
X137088086Y-41396423D01*
X136755874Y-41230567D01*
X136397688Y-41132710D01*
X136027294Y-41106611D01*
X135658925Y-41153275D01*
X135306738Y-41270906D01*
X135071914Y-41396423D01*
X134946000Y-41686395D01*
X132881808Y-41686395D01*
X132875812Y-41625518D01*
X132839502Y-41505820D01*
X132780537Y-41395506D01*
X132701185Y-41298815D01*
X132604494Y-41219463D01*
X132494180Y-41160498D01*
X132374482Y-41124188D01*
X132250000Y-41111928D01*
X129750000Y-41111928D01*
X129625518Y-41124188D01*
X129505820Y-41160498D01*
X129395506Y-41219463D01*
X129298815Y-41298815D01*
X129219463Y-41395506D01*
X129160498Y-41505820D01*
X129124188Y-41625518D01*
X129111928Y-41750000D01*
X112935000Y-41750000D01*
X112935000Y-41641984D01*
X112795309Y-40939710D01*
X112521295Y-40278182D01*
X112123489Y-39682823D01*
X111617177Y-39176511D01*
X111021818Y-38778705D01*
X110360290Y-38504691D01*
X109658016Y-38365000D01*
X108941984Y-38365000D01*
X108239710Y-38504691D01*
X107578182Y-38778705D01*
X106982823Y-39176511D01*
X106476511Y-39682823D01*
X106078705Y-40278182D01*
X105804691Y-40939710D01*
X105665000Y-41641984D01*
X105010000Y-41641984D01*
X105010000Y-38010000D01*
X161290001Y-38010000D01*
X161290001Y-38265115D01*
X161290001Y-38265115D01*
G37*
X161290001Y-38265115D02*
X161290000Y-38265124D01*
X161290001Y-143965114D01*
X161290000Y-143965124D01*
X161290000Y-144290000D01*
X105010000Y-144290000D01*
X105010000Y-139941984D01*
X105665000Y-139941984D01*
X105665000Y-140658016D01*
X105804691Y-141360290D01*
X106078705Y-142021818D01*
X106476511Y-142617177D01*
X106982823Y-143123489D01*
X107578182Y-143521295D01*
X108239710Y-143795309D01*
X108941984Y-143935000D01*
X109658016Y-143935000D01*
X110360290Y-143795309D01*
X111021818Y-143521295D01*
X111617177Y-143123489D01*
X112123489Y-142617177D01*
X112521295Y-142021818D01*
X112795309Y-141360290D01*
X112935000Y-140658016D01*
X112935000Y-140378363D01*
X127265000Y-140378363D01*
X127265000Y-140621637D01*
X127312460Y-140860236D01*
X127405557Y-141084992D01*
X127540713Y-141287267D01*
X127712733Y-141459287D01*
X127915008Y-141594443D01*
X127988779Y-141625000D01*
X127915008Y-141655557D01*
X127712733Y-141790713D01*
X127540713Y-141962733D01*
X127405557Y-142165008D01*
X127312460Y-142389764D01*
X127265000Y-142628363D01*
X127265000Y-142871637D01*
X127312460Y-143110236D01*
X127405557Y-143334992D01*
X127540713Y-143537267D01*
X127712733Y-143709287D01*
X127915008Y-143844443D01*
X128139764Y-143937540D01*
X128378363Y-143985000D01*
X128621637Y-143985000D01*
X128860236Y-143937540D01*
X129084992Y-143844443D01*
X129287267Y-143709287D01*
X129459287Y-143537267D01*
X129594443Y-143334992D01*
X129687540Y-143110236D01*
X129735000Y-142871637D01*
X129735000Y-142628363D01*
X129687540Y-142389764D01*
X129594443Y-142165008D01*
X129459287Y-141962733D01*
X129287267Y-141790713D01*
X129084992Y-141655557D01*
X129011221Y-141625000D01*
X129084992Y-141594443D01*
X129287267Y-141459287D01*
X129459287Y-141287267D01*
X129594443Y-141084992D01*
X129687540Y-140860236D01*
X129735000Y-140621637D01*
X129735000Y-140378363D01*
X129687540Y-140139764D01*
X129594443Y-139915008D01*
X129459287Y-139712733D01*
X129346554Y-139600000D01*
X131511928Y-139600000D01*
X131511928Y-141400000D01*
X131524188Y-141524482D01*
X131560498Y-141644180D01*
X131619463Y-141754494D01*
X131698815Y-141851185D01*
X131795506Y-141930537D01*
X131905820Y-141989502D01*
X132025518Y-142025812D01*
X132150000Y-142038072D01*
X134850000Y-142038072D01*
X134974482Y-142025812D01*
X135094180Y-141989502D01*
X135204494Y-141930537D01*
X135301185Y-141851185D01*
X135380537Y-141754494D01*
X135439502Y-141644180D01*
X135475812Y-141524482D01*
X135488072Y-141400000D01*
X135488072Y-140378363D01*
X137265000Y-140378363D01*
X137265000Y-140621637D01*
X137312460Y-140860236D01*
X137405557Y-141084992D01*
X137540713Y-141287267D01*
X137712733Y-141459287D01*
X137915008Y-141594443D01*
X137988779Y-141625000D01*
X137915008Y-141655557D01*
X137712733Y-141790713D01*
X137540713Y-141962733D01*
X137405557Y-142165008D01*
X137312460Y-142389764D01*
X137265000Y-142628363D01*
X137265000Y-142871637D01*
X137312460Y-143110236D01*
X137405557Y-143334992D01*
X137540713Y-143537267D01*
X137712733Y-143709287D01*
X137915008Y-143844443D01*
X138139764Y-143937540D01*
X138378363Y-143985000D01*
X138621637Y-143985000D01*
X138860236Y-143937540D01*
X139084992Y-143844443D01*
X139287267Y-143709287D01*
X139459287Y-143537267D01*
X139594443Y-143334992D01*
X139687540Y-143110236D01*
X139735000Y-142871637D01*
X139735000Y-142628363D01*
X139687540Y-142389764D01*
X139594443Y-142165008D01*
X139459287Y-141962733D01*
X139287267Y-141790713D01*
X139084992Y-141655557D01*
X139011221Y-141625000D01*
X139084992Y-141594443D01*
X139287267Y-141459287D01*
X139459287Y-141287267D01*
X139594443Y-141084992D01*
X139687540Y-140860236D01*
X139735000Y-140621637D01*
X139735000Y-140378363D01*
X139687540Y-140139764D01*
X139605617Y-139941984D01*
X153765000Y-139941984D01*
X153765000Y-140658016D01*
X153904691Y-141360290D01*
X154178705Y-142021818D01*
X154576511Y-142617177D01*
X155082823Y-143123489D01*
X155678182Y-143521295D01*
X156339710Y-143795309D01*
X157041984Y-143935000D01*
X157758016Y-143935000D01*
X158460290Y-143795309D01*
X159121818Y-143521295D01*
X159717177Y-143123489D01*
X160223489Y-142617177D01*
X160621295Y-142021818D01*
X160895309Y-141360290D01*
X161035000Y-140658016D01*
X161035000Y-139941984D01*
X160895309Y-139239710D01*
X160621295Y-138578182D01*
X160223489Y-137982823D01*
X159717177Y-137476511D01*
X159121818Y-137078705D01*
X158460290Y-136804691D01*
X157758016Y-136665000D01*
X157041984Y-136665000D01*
X156339710Y-136804691D01*
X155678182Y-137078705D01*
X155082823Y-137476511D01*
X154576511Y-137982823D01*
X154178705Y-138578182D01*
X153904691Y-139239710D01*
X153765000Y-139941984D01*
X139605617Y-139941984D01*
X139594443Y-139915008D01*
X139459287Y-139712733D01*
X139287267Y-139540713D01*
X139084992Y-139405557D01*
X138860236Y-139312460D01*
X138621637Y-139265000D01*
X138378363Y-139265000D01*
X138139764Y-139312460D01*
X137915008Y-139405557D01*
X137712733Y-139540713D01*
X137540713Y-139712733D01*
X137405557Y-139915008D01*
X137312460Y-140139764D01*
X137265000Y-140378363D01*
X135488072Y-140378363D01*
X135488072Y-139600000D01*
X135475812Y-139475518D01*
X135439502Y-139355820D01*
X135380537Y-139245506D01*
X135301185Y-139148815D01*
X135204494Y-139069463D01*
X135094180Y-139010498D01*
X134974482Y-138974188D01*
X134850000Y-138961928D01*
X132150000Y-138961928D01*
X132025518Y-138974188D01*
X131905820Y-139010498D01*
X131795506Y-139069463D01*
X131698815Y-139148815D01*
X131619463Y-139245506D01*
X131560498Y-139355820D01*
X131524188Y-139475518D01*
X131511928Y-139600000D01*
X129346554Y-139600000D01*
X129287267Y-139540713D01*
X129084992Y-139405557D01*
X128860236Y-139312460D01*
X128621637Y-139265000D01*
X128378363Y-139265000D01*
X128139764Y-139312460D01*
X127915008Y-139405557D01*
X127712733Y-139540713D01*
X127540713Y-139712733D01*
X127405557Y-139915008D01*
X127312460Y-140139764D01*
X127265000Y-140378363D01*
X112935000Y-140378363D01*
X112935000Y-139941984D01*
X112795309Y-139239710D01*
X112521295Y-138578182D01*
X112123489Y-137982823D01*
X111617177Y-137476511D01*
X111021818Y-137078705D01*
X110360290Y-136804691D01*
X109658016Y-136665000D01*
X108941984Y-136665000D01*
X108239710Y-136804691D01*
X107578182Y-137078705D01*
X106982823Y-137476511D01*
X106476511Y-137982823D01*
X106078705Y-138578182D01*
X105804691Y-139239710D01*
X105665000Y-139941984D01*
X105010000Y-139941984D01*
X105010000Y-134150000D01*
X126961928Y-134150000D01*
X126961928Y-136850000D01*
X126974188Y-136974482D01*
X127010498Y-137094180D01*
X127069463Y-137204494D01*
X127148815Y-137301185D01*
X127245506Y-137380537D01*
X127355820Y-137439502D01*
X127475518Y-137475812D01*
X127600000Y-137488072D01*
X129400000Y-137488072D01*
X129524482Y-137475812D01*
X129644180Y-137439502D01*
X129750000Y-137382939D01*
X129855820Y-137439502D01*
X129975518Y-137475812D01*
X130100000Y-137488072D01*
X131900000Y-137488072D01*
X132024482Y-137475812D01*
X132144180Y-137439502D01*
X132254494Y-137380537D01*
X132351185Y-137301185D01*
X132430537Y-137204494D01*
X132489502Y-137094180D01*
X132525812Y-136974482D01*
X132538072Y-136850000D01*
X132538072Y-136283314D01*
X132540713Y-136287267D01*
X132712733Y-136459287D01*
X132915008Y-136594443D01*
X133139764Y-136687540D01*
X133378363Y-136735000D01*
X133621637Y-136735000D01*
X133860236Y-136687540D01*
X134084992Y-136594443D01*
X134287267Y-136459287D01*
X134459287Y-136287267D01*
X134461928Y-136283314D01*
X134461928Y-136850000D01*
X134474188Y-136974482D01*
X134510498Y-137094180D01*
X134569463Y-137204494D01*
X134648815Y-137301185D01*
X134745506Y-137380537D01*
X134855820Y-137439502D01*
X134975518Y-137475812D01*
X135100000Y-137488072D01*
X136900000Y-137488072D01*
X137024482Y-137475812D01*
X137144180Y-137439502D01*
X137250000Y-137382939D01*
X137355820Y-137439502D01*
X137475518Y-137475812D01*
X137600000Y-137488072D01*
X139400000Y-137488072D01*
X139524482Y-137475812D01*
X139644180Y-137439502D01*
X139754494Y-137380537D01*
X139851185Y-137301185D01*
X139930537Y-137204494D01*
X139989502Y-137094180D01*
X140025812Y-136974482D01*
X140038072Y-136850000D01*
X140038072Y-134150000D01*
X140025812Y-134025518D01*
X139989502Y-133905820D01*
X139930537Y-133795506D01*
X139851185Y-133698815D01*
X139754494Y-133619463D01*
X139644180Y-133560498D01*
X139524482Y-133524188D01*
X139400000Y-133511928D01*
X137600000Y-133511928D01*
X137475518Y-133524188D01*
X137355820Y-133560498D01*
X137250000Y-133617061D01*
X137144180Y-133560498D01*
X137024482Y-133524188D01*
X136900000Y-133511928D01*
X135100000Y-133511928D01*
X134975518Y-133524188D01*
X134855820Y-133560498D01*
X134745506Y-133619463D01*
X134648815Y-133698815D01*
X134569463Y-133795506D01*
X134510498Y-133905820D01*
X134474188Y-134025518D01*
X134461928Y-134150000D01*
X134461928Y-134716686D01*
X134459287Y-134712733D01*
X134287267Y-134540713D01*
X134084992Y-134405557D01*
X133860236Y-134312460D01*
X133621637Y-134265000D01*
X133378363Y-134265000D01*
X133139764Y-134312460D01*
X132915008Y-134405557D01*
X132712733Y-134540713D01*
X132540713Y-134712733D01*
X132538072Y-134716686D01*
X132538072Y-134150000D01*
X132525812Y-134025518D01*
X132489502Y-133905820D01*
X132430537Y-133795506D01*
X132351185Y-133698815D01*
X132254494Y-133619463D01*
X132144180Y-133560498D01*
X132024482Y-133524188D01*
X131900000Y-133511928D01*
X130100000Y-133511928D01*
X129975518Y-133524188D01*
X129855820Y-133560498D01*
X129750000Y-133617061D01*
X129644180Y-133560498D01*
X129524482Y-133524188D01*
X129400000Y-133511928D01*
X127600000Y-133511928D01*
X127475518Y-133524188D01*
X127355820Y-133560498D01*
X127245506Y-133619463D01*
X127148815Y-133698815D01*
X127069463Y-133795506D01*
X127010498Y-133905820D01*
X126974188Y-134025518D01*
X126961928Y-134150000D01*
X105010000Y-134150000D01*
X105010000Y-118034876D01*
X120290000Y-118034876D01*
X120291521Y-118050316D01*
X120317313Y-118641059D01*
X120321135Y-118673352D01*
X120323122Y-118705834D01*
X120325870Y-118724218D01*
X120492644Y-119748246D01*
X120502760Y-119790382D01*
X120511775Y-119832796D01*
X120517208Y-119850564D01*
X120517210Y-119850573D01*
X120517213Y-119850581D01*
X120833512Y-120838699D01*
X120849740Y-120878863D01*
X120864931Y-120919494D01*
X120872933Y-120936271D01*
X121331816Y-121866793D01*
X121353798Y-121904111D01*
X121374832Y-121942057D01*
X121385227Y-121957467D01*
X121976608Y-122809940D01*
X122003881Y-122843619D01*
X122030277Y-122878019D01*
X122042835Y-122891723D01*
X122753726Y-123647421D01*
X122785675Y-123676697D01*
X122816867Y-123706819D01*
X122831312Y-123718516D01*
X123646093Y-124360838D01*
X123682017Y-124385069D01*
X123717320Y-124410250D01*
X123733336Y-124419684D01*
X124634108Y-124934518D01*
X124673211Y-124953169D01*
X124711857Y-124972860D01*
X124729091Y-124979823D01*
X125696067Y-125355859D01*
X125737520Y-125368532D01*
X125778629Y-125382287D01*
X125796703Y-125386626D01*
X126808639Y-125615604D01*
X126851489Y-125622008D01*
X126894200Y-125629539D01*
X126912717Y-125631159D01*
X127938911Y-125707418D01*
X127965123Y-125710000D01*
X139034877Y-125710000D01*
X139050318Y-125708479D01*
X139641059Y-125682687D01*
X139673352Y-125678865D01*
X139705834Y-125676878D01*
X139724218Y-125674130D01*
X140748246Y-125507356D01*
X140790382Y-125497240D01*
X140832796Y-125488225D01*
X140850564Y-125482792D01*
X140850573Y-125482790D01*
X140850581Y-125482787D01*
X141838699Y-125166488D01*
X141878863Y-125150260D01*
X141919494Y-125135069D01*
X141936271Y-125127067D01*
X142866793Y-124668184D01*
X142904111Y-124646202D01*
X142942057Y-124625168D01*
X142957467Y-124614773D01*
X143809940Y-124023392D01*
X143843619Y-123996119D01*
X143878019Y-123969723D01*
X143891723Y-123957165D01*
X144647421Y-123246274D01*
X144676697Y-123214325D01*
X144706819Y-123183133D01*
X144718516Y-123168688D01*
X145360838Y-122353907D01*
X145385069Y-122317983D01*
X145410250Y-122282680D01*
X145419684Y-122266664D01*
X145934518Y-121365892D01*
X145953169Y-121326789D01*
X145972860Y-121288143D01*
X145979823Y-121270909D01*
X146355859Y-120303933D01*
X146368532Y-120262480D01*
X146382287Y-120221371D01*
X146386626Y-120203297D01*
X146615604Y-119191361D01*
X146622008Y-119148511D01*
X146629539Y-119105800D01*
X146631159Y-119087283D01*
X146707418Y-118061089D01*
X146710000Y-118034877D01*
X146710000Y-116965123D01*
X146708479Y-116949682D01*
X146682687Y-116358940D01*
X146678865Y-116326646D01*
X146676878Y-116294166D01*
X146674130Y-116275783D01*
X146507356Y-115251754D01*
X146497241Y-115209621D01*
X146488225Y-115167204D01*
X146482790Y-115149428D01*
X146166488Y-114161301D01*
X146150263Y-114121144D01*
X146135069Y-114080505D01*
X146127066Y-114063729D01*
X145668184Y-113133206D01*
X145646182Y-113095855D01*
X145625167Y-113057943D01*
X145614773Y-113042533D01*
X145023391Y-112190059D01*
X144996121Y-112156384D01*
X144969723Y-112121981D01*
X144957165Y-112108277D01*
X144246274Y-111352579D01*
X144214333Y-111323311D01*
X144183133Y-111293181D01*
X144168688Y-111281484D01*
X143353907Y-110639162D01*
X143317980Y-110614929D01*
X143282679Y-110589749D01*
X143266664Y-110580316D01*
X142365892Y-110065482D01*
X142326789Y-110046831D01*
X142288143Y-110027140D01*
X142270909Y-110020177D01*
X141303933Y-109644141D01*
X141262487Y-109631470D01*
X141221372Y-109617713D01*
X141203297Y-109613374D01*
X140191361Y-109384396D01*
X140148511Y-109377992D01*
X140105800Y-109370461D01*
X140087283Y-109368841D01*
X139061089Y-109292582D01*
X139034877Y-109290000D01*
X127965123Y-109290000D01*
X127949682Y-109291521D01*
X127358940Y-109317313D01*
X127326646Y-109321135D01*
X127294166Y-109323122D01*
X127275783Y-109325870D01*
X126251754Y-109492644D01*
X126209621Y-109502759D01*
X126167204Y-109511775D01*
X126149428Y-109517210D01*
X125161301Y-109833512D01*
X125121144Y-109849737D01*
X125080505Y-109864931D01*
X125063729Y-109872934D01*
X124133206Y-110331816D01*
X124095855Y-110353818D01*
X124057943Y-110374833D01*
X124042533Y-110385227D01*
X123190059Y-110976609D01*
X123156384Y-111003879D01*
X123121981Y-111030277D01*
X123108277Y-111042835D01*
X122352579Y-111753726D01*
X122323311Y-111785667D01*
X122293181Y-111816867D01*
X122281484Y-111831312D01*
X121639162Y-112646093D01*
X121614929Y-112682020D01*
X121589749Y-112717321D01*
X121580316Y-112733336D01*
X121065482Y-113634108D01*
X121046831Y-113673211D01*
X121027140Y-113711857D01*
X121020177Y-113729091D01*
X120644141Y-114696067D01*
X120631470Y-114737513D01*
X120617713Y-114778628D01*
X120613374Y-114796703D01*
X120384396Y-115808639D01*
X120377992Y-115851489D01*
X120370461Y-115894200D01*
X120368841Y-115912717D01*
X120292579Y-116938952D01*
X120290001Y-116965123D01*
X120290000Y-118034876D01*
X105010000Y-118034876D01*
X105010000Y-69635413D01*
X112544192Y-69635413D01*
X112639956Y-69899814D01*
X112929571Y-70040704D01*
X113241108Y-70122384D01*
X113562595Y-70141718D01*
X113881675Y-70097961D01*
X114186088Y-69992795D01*
X114360044Y-69899814D01*
X114455808Y-69635413D01*
X113500000Y-68679605D01*
X112544192Y-69635413D01*
X105010000Y-69635413D01*
X105010000Y-68562595D01*
X111858282Y-68562595D01*
X111902039Y-68881675D01*
X112007205Y-69186088D01*
X112100186Y-69360044D01*
X112364587Y-69455808D01*
X113320395Y-68500000D01*
X113679605Y-68500000D01*
X114635413Y-69455808D01*
X114665075Y-69445065D01*
X114730013Y-69542252D01*
X114957748Y-69769987D01*
X115225537Y-69948918D01*
X115523088Y-70072168D01*
X115838967Y-70135000D01*
X116161033Y-70135000D01*
X116476912Y-70072168D01*
X116774463Y-69948918D01*
X117042252Y-69769987D01*
X117250000Y-69562239D01*
X117457748Y-69769987D01*
X117725537Y-69948918D01*
X118023088Y-70072168D01*
X118338967Y-70135000D01*
X118661033Y-70135000D01*
X118976912Y-70072168D01*
X119274463Y-69948918D01*
X119542252Y-69769987D01*
X119769987Y-69542252D01*
X119948918Y-69274463D01*
X120072168Y-68976912D01*
X120135000Y-68661033D01*
X120135000Y-68338967D01*
X120072168Y-68023088D01*
X119948918Y-67725537D01*
X119769987Y-67457748D01*
X119542252Y-67230013D01*
X119310000Y-67074827D01*
X119310000Y-64858665D01*
X129315000Y-64858665D01*
X129315000Y-65141335D01*
X129370147Y-65418574D01*
X129478320Y-65679727D01*
X129635363Y-65914759D01*
X129835241Y-66114637D01*
X130070273Y-66271680D01*
X130331426Y-66379853D01*
X130608665Y-66435000D01*
X130891335Y-66435000D01*
X131168574Y-66379853D01*
X131429727Y-66271680D01*
X131664759Y-66114637D01*
X131864637Y-65914759D01*
X132021680Y-65679727D01*
X132129853Y-65418574D01*
X132185000Y-65141335D01*
X132185000Y-64858665D01*
X140315000Y-64858665D01*
X140315000Y-65141335D01*
X140370147Y-65418574D01*
X140478320Y-65679727D01*
X140635363Y-65914759D01*
X140835241Y-66114637D01*
X141070273Y-66271680D01*
X141331426Y-66379853D01*
X141608665Y-66435000D01*
X141891335Y-66435000D01*
X142168574Y-66379853D01*
X142429727Y-66271680D01*
X142664759Y-66114637D01*
X142864637Y-65914759D01*
X143021680Y-65679727D01*
X143129853Y-65418574D01*
X143185000Y-65141335D01*
X143185000Y-64858665D01*
X151315000Y-64858665D01*
X151315000Y-65141335D01*
X151370147Y-65418574D01*
X151478320Y-65679727D01*
X151635363Y-65914759D01*
X151835241Y-66114637D01*
X152070273Y-66271680D01*
X152331426Y-66379853D01*
X152608665Y-66435000D01*
X152891335Y-66435000D01*
X153168574Y-66379853D01*
X153429727Y-66271680D01*
X153664759Y-66114637D01*
X153864637Y-65914759D01*
X154021680Y-65679727D01*
X154129853Y-65418574D01*
X154185000Y-65141335D01*
X154185000Y-64858665D01*
X154129853Y-64581426D01*
X154021680Y-64320273D01*
X153864637Y-64085241D01*
X153664759Y-63885363D01*
X153429727Y-63728320D01*
X153168574Y-63620147D01*
X152891335Y-63565000D01*
X152608665Y-63565000D01*
X152331426Y-63620147D01*
X152070273Y-63728320D01*
X151835241Y-63885363D01*
X151635363Y-64085241D01*
X151478320Y-64320273D01*
X151370147Y-64581426D01*
X151315000Y-64858665D01*
X143185000Y-64858665D01*
X143129853Y-64581426D01*
X143021680Y-64320273D01*
X142864637Y-64085241D01*
X142664759Y-63885363D01*
X142429727Y-63728320D01*
X142168574Y-63620147D01*
X141891335Y-63565000D01*
X141608665Y-63565000D01*
X141331426Y-63620147D01*
X141070273Y-63728320D01*
X140835241Y-63885363D01*
X140635363Y-64085241D01*
X140478320Y-64320273D01*
X140370147Y-64581426D01*
X140315000Y-64858665D01*
X132185000Y-64858665D01*
X132129853Y-64581426D01*
X132021680Y-64320273D01*
X131864637Y-64085241D01*
X131664759Y-63885363D01*
X131429727Y-63728320D01*
X131168574Y-63620147D01*
X130891335Y-63565000D01*
X130608665Y-63565000D01*
X130331426Y-63620147D01*
X130070273Y-63728320D01*
X129835241Y-63885363D01*
X129635363Y-64085241D01*
X129478320Y-64320273D01*
X129370147Y-64581426D01*
X129315000Y-64858665D01*
X119310000Y-64858665D01*
X119310000Y-60164776D01*
X119515000Y-60164776D01*
X119515000Y-61835225D01*
X119540105Y-62090119D01*
X119639315Y-62417168D01*
X119800422Y-62718578D01*
X120017235Y-62982766D01*
X120281423Y-63199579D01*
X120582833Y-63360686D01*
X120909882Y-63459895D01*
X121250000Y-63493394D01*
X121590119Y-63459895D01*
X121917168Y-63360686D01*
X122218578Y-63199579D01*
X122482766Y-62982766D01*
X122699579Y-62718578D01*
X122860686Y-62417168D01*
X122959895Y-62090119D01*
X122982691Y-61858665D01*
X129315000Y-61858665D01*
X129315000Y-62141335D01*
X129370147Y-62418574D01*
X129478320Y-62679727D01*
X129635363Y-62914759D01*
X129835241Y-63114637D01*
X130070273Y-63271680D01*
X130331426Y-63379853D01*
X130608665Y-63435000D01*
X130891335Y-63435000D01*
X131168574Y-63379853D01*
X131429727Y-63271680D01*
X131664759Y-63114637D01*
X131864637Y-62914759D01*
X132021680Y-62679727D01*
X132129853Y-62418574D01*
X132185000Y-62141335D01*
X132185000Y-61858665D01*
X140315000Y-61858665D01*
X140315000Y-62141335D01*
X140370147Y-62418574D01*
X140478320Y-62679727D01*
X140635363Y-62914759D01*
X140835241Y-63114637D01*
X141070273Y-63271680D01*
X141331426Y-63379853D01*
X141608665Y-63435000D01*
X141891335Y-63435000D01*
X142168574Y-63379853D01*
X142429727Y-63271680D01*
X142664759Y-63114637D01*
X142864637Y-62914759D01*
X143021680Y-62679727D01*
X143129853Y-62418574D01*
X143185000Y-62141335D01*
X143185000Y-61858665D01*
X151315000Y-61858665D01*
X151315000Y-62141335D01*
X151370147Y-62418574D01*
X151478320Y-62679727D01*
X151635363Y-62914759D01*
X151835241Y-63114637D01*
X152070273Y-63271680D01*
X152331426Y-63379853D01*
X152608665Y-63435000D01*
X152891335Y-63435000D01*
X153168574Y-63379853D01*
X153429727Y-63271680D01*
X153664759Y-63114637D01*
X153864637Y-62914759D01*
X154021680Y-62679727D01*
X154129853Y-62418574D01*
X154185000Y-62141335D01*
X154185000Y-61858665D01*
X154129853Y-61581426D01*
X154021680Y-61320273D01*
X153864637Y-61085241D01*
X153664759Y-60885363D01*
X153429727Y-60728320D01*
X153168574Y-60620147D01*
X152891335Y-60565000D01*
X152608665Y-60565000D01*
X152331426Y-60620147D01*
X152070273Y-60728320D01*
X151835241Y-60885363D01*
X151635363Y-61085241D01*
X151478320Y-61320273D01*
X151370147Y-61581426D01*
X151315000Y-61858665D01*
X143185000Y-61858665D01*
X143129853Y-61581426D01*
X143021680Y-61320273D01*
X142864637Y-61085241D01*
X142664759Y-60885363D01*
X142429727Y-60728320D01*
X142168574Y-60620147D01*
X141891335Y-60565000D01*
X141608665Y-60565000D01*
X141331426Y-60620147D01*
X141070273Y-60728320D01*
X140835241Y-60885363D01*
X140635363Y-61085241D01*
X140478320Y-61320273D01*
X140370147Y-61581426D01*
X140315000Y-61858665D01*
X132185000Y-61858665D01*
X132129853Y-61581426D01*
X132021680Y-61320273D01*
X131864637Y-61085241D01*
X131664759Y-60885363D01*
X131429727Y-60728320D01*
X131168574Y-60620147D01*
X130891335Y-60565000D01*
X130608665Y-60565000D01*
X130331426Y-60620147D01*
X130070273Y-60728320D01*
X129835241Y-60885363D01*
X129635363Y-61085241D01*
X129478320Y-61320273D01*
X129370147Y-61581426D01*
X129315000Y-61858665D01*
X122982691Y-61858665D01*
X122985000Y-61835225D01*
X122985000Y-60164775D01*
X122959895Y-59909881D01*
X122860686Y-59582832D01*
X122699579Y-59281422D01*
X122482766Y-59017234D01*
X122289548Y-58858665D01*
X129315000Y-58858665D01*
X129315000Y-59141335D01*
X129370147Y-59418574D01*
X129478320Y-59679727D01*
X129635363Y-59914759D01*
X129835241Y-60114637D01*
X130070273Y-60271680D01*
X130331426Y-60379853D01*
X130608665Y-60435000D01*
X130891335Y-60435000D01*
X131168574Y-60379853D01*
X131429727Y-60271680D01*
X131664759Y-60114637D01*
X131786694Y-59992702D01*
X140936903Y-59992702D01*
X141008486Y-60236671D01*
X141263996Y-60357571D01*
X141538184Y-60426300D01*
X141820512Y-60440217D01*
X142100130Y-60398787D01*
X142366292Y-60303603D01*
X142491514Y-60236671D01*
X142563097Y-59992702D01*
X141750000Y-59179605D01*
X140936903Y-59992702D01*
X131786694Y-59992702D01*
X131864637Y-59914759D01*
X132021680Y-59679727D01*
X132129853Y-59418574D01*
X132185000Y-59141335D01*
X132185000Y-59070512D01*
X140309783Y-59070512D01*
X140351213Y-59350130D01*
X140446397Y-59616292D01*
X140513329Y-59741514D01*
X140757298Y-59813097D01*
X141570395Y-59000000D01*
X141929605Y-59000000D01*
X142742702Y-59813097D01*
X142986671Y-59741514D01*
X143107571Y-59486004D01*
X143176300Y-59211816D01*
X143190217Y-58929488D01*
X143179724Y-58858665D01*
X151315000Y-58858665D01*
X151315000Y-59141335D01*
X151370147Y-59418574D01*
X151478320Y-59679727D01*
X151635363Y-59914759D01*
X151835241Y-60114637D01*
X152070273Y-60271680D01*
X152331426Y-60379853D01*
X152608665Y-60435000D01*
X152891335Y-60435000D01*
X153168574Y-60379853D01*
X153429727Y-60271680D01*
X153664759Y-60114637D01*
X153864637Y-59914759D01*
X154021680Y-59679727D01*
X154129853Y-59418574D01*
X154185000Y-59141335D01*
X154185000Y-58858665D01*
X154129853Y-58581426D01*
X154021680Y-58320273D01*
X153864637Y-58085241D01*
X153664759Y-57885363D01*
X153429727Y-57728320D01*
X153168574Y-57620147D01*
X152891335Y-57565000D01*
X152608665Y-57565000D01*
X152331426Y-57620147D01*
X152070273Y-57728320D01*
X151835241Y-57885363D01*
X151635363Y-58085241D01*
X151478320Y-58320273D01*
X151370147Y-58581426D01*
X151315000Y-58858665D01*
X143179724Y-58858665D01*
X143148787Y-58649870D01*
X143053603Y-58383708D01*
X142986671Y-58258486D01*
X142742702Y-58186903D01*
X141929605Y-59000000D01*
X141570395Y-59000000D01*
X140757298Y-58186903D01*
X140513329Y-58258486D01*
X140392429Y-58513996D01*
X140323700Y-58788184D01*
X140309783Y-59070512D01*
X132185000Y-59070512D01*
X132185000Y-58858665D01*
X132129853Y-58581426D01*
X132021680Y-58320273D01*
X131864637Y-58085241D01*
X131786694Y-58007298D01*
X140936903Y-58007298D01*
X141750000Y-58820395D01*
X142563097Y-58007298D01*
X142491514Y-57763329D01*
X142236004Y-57642429D01*
X141961816Y-57573700D01*
X141679488Y-57559783D01*
X141399870Y-57601213D01*
X141133708Y-57696397D01*
X141008486Y-57763329D01*
X140936903Y-58007298D01*
X131786694Y-58007298D01*
X131664759Y-57885363D01*
X131429727Y-57728320D01*
X131168574Y-57620147D01*
X130891335Y-57565000D01*
X130608665Y-57565000D01*
X130331426Y-57620147D01*
X130070273Y-57728320D01*
X129835241Y-57885363D01*
X129635363Y-58085241D01*
X129478320Y-58320273D01*
X129370147Y-58581426D01*
X129315000Y-58858665D01*
X122289548Y-58858665D01*
X122218577Y-58800421D01*
X121917167Y-58639314D01*
X121590118Y-58540105D01*
X121250000Y-58506606D01*
X120909881Y-58540105D01*
X120582832Y-58639314D01*
X120281422Y-58800421D01*
X120017234Y-59017234D01*
X119800421Y-59281423D01*
X119639314Y-59582833D01*
X119540105Y-59909882D01*
X119515000Y-60164776D01*
X119310000Y-60164776D01*
X119310000Y-58883630D01*
X119442889Y-58828586D01*
X119596028Y-58726262D01*
X119726262Y-58596028D01*
X119828586Y-58442889D01*
X119899068Y-58272729D01*
X119935000Y-58092089D01*
X119935000Y-57907911D01*
X119899068Y-57727271D01*
X119828586Y-57557111D01*
X119726262Y-57403972D01*
X119596028Y-57273738D01*
X119442889Y-57171414D01*
X119272729Y-57100932D01*
X119092089Y-57065000D01*
X118907911Y-57065000D01*
X118727271Y-57100932D01*
X118557111Y-57171414D01*
X118403972Y-57273738D01*
X118273738Y-57403972D01*
X118171414Y-57557111D01*
X118100932Y-57727271D01*
X118094405Y-57760083D01*
X117955383Y-57899105D01*
X117924473Y-57924472D01*
X117899108Y-57955380D01*
X117823251Y-58047811D01*
X117748038Y-58188527D01*
X117701721Y-58341213D01*
X117686081Y-58500000D01*
X117690001Y-58539798D01*
X117690000Y-67074827D01*
X117457748Y-67230013D01*
X117250000Y-67437761D01*
X117042252Y-67230013D01*
X116774463Y-67051082D01*
X116476912Y-66927832D01*
X116161033Y-66865000D01*
X115838967Y-66865000D01*
X115523088Y-66927832D01*
X115225537Y-67051082D01*
X114957748Y-67230013D01*
X114730013Y-67457748D01*
X114665075Y-67554935D01*
X114635413Y-67544192D01*
X113679605Y-68500000D01*
X113320395Y-68500000D01*
X112364587Y-67544192D01*
X112100186Y-67639956D01*
X111959296Y-67929571D01*
X111877616Y-68241108D01*
X111858282Y-68562595D01*
X105010000Y-68562595D01*
X105010000Y-67364587D01*
X112544192Y-67364587D01*
X113500000Y-68320395D01*
X114455808Y-67364587D01*
X114360044Y-67100186D01*
X114070429Y-66959296D01*
X113758892Y-66877616D01*
X113437405Y-66858282D01*
X113118325Y-66902039D01*
X112813912Y-67007205D01*
X112639956Y-67100186D01*
X112544192Y-67364587D01*
X105010000Y-67364587D01*
X105010000Y-60164776D01*
X109015000Y-60164776D01*
X109015000Y-61835225D01*
X109040105Y-62090119D01*
X109139315Y-62417168D01*
X109300422Y-62718578D01*
X109517235Y-62982766D01*
X109781423Y-63199579D01*
X110082833Y-63360686D01*
X110409882Y-63459895D01*
X110750000Y-63493394D01*
X111090119Y-63459895D01*
X111417168Y-63360686D01*
X111718578Y-63199579D01*
X111982766Y-62982766D01*
X112199579Y-62718578D01*
X112360686Y-62417168D01*
X112459895Y-62090119D01*
X112485000Y-61835225D01*
X112485000Y-60164775D01*
X112459895Y-59909881D01*
X112360686Y-59582832D01*
X112199579Y-59281422D01*
X111982766Y-59017234D01*
X111718577Y-58800421D01*
X111417167Y-58639314D01*
X111090118Y-58540105D01*
X110750000Y-58506606D01*
X110409881Y-58540105D01*
X110082832Y-58639314D01*
X109781422Y-58800421D01*
X109517234Y-59017234D01*
X109300421Y-59281423D01*
X109139314Y-59582833D01*
X109040105Y-59909882D01*
X109015000Y-60164776D01*
X105010000Y-60164776D01*
X105010000Y-46000000D01*
X144411928Y-46000000D01*
X144424188Y-46124482D01*
X144460498Y-46244180D01*
X144519463Y-46354494D01*
X144598815Y-46451185D01*
X144695506Y-46530537D01*
X144805820Y-46589502D01*
X144925518Y-46625812D01*
X145050000Y-46638072D01*
X145714250Y-46635000D01*
X145873000Y-46476250D01*
X145873000Y-45127000D01*
X144573750Y-45127000D01*
X144415000Y-45285750D01*
X144411928Y-46000000D01*
X105010000Y-46000000D01*
X105010000Y-41641984D01*
X105665000Y-41641984D01*
X105665000Y-42358016D01*
X105804691Y-43060290D01*
X106078705Y-43721818D01*
X106476511Y-44317177D01*
X106982823Y-44823489D01*
X107578182Y-45221295D01*
X108239710Y-45495309D01*
X108941984Y-45635000D01*
X109658016Y-45635000D01*
X110360290Y-45495309D01*
X111021818Y-45221295D01*
X111617177Y-44823489D01*
X112123489Y-44317177D01*
X112521295Y-43721818D01*
X112795309Y-43060290D01*
X112935000Y-42358016D01*
X112935000Y-41750000D01*
X129111928Y-41750000D01*
X129111928Y-44250000D01*
X129124188Y-44374482D01*
X129160498Y-44494180D01*
X129219463Y-44604494D01*
X129298815Y-44701185D01*
X129395506Y-44780537D01*
X129505820Y-44839502D01*
X129625518Y-44875812D01*
X129750000Y-44888072D01*
X132250000Y-44888072D01*
X132374482Y-44875812D01*
X132494180Y-44839502D01*
X132604494Y-44780537D01*
X132701185Y-44701185D01*
X132780537Y-44604494D01*
X132839502Y-44494180D01*
X132875812Y-44374482D01*
X132881807Y-44313605D01*
X134946000Y-44313605D01*
X135071914Y-44603577D01*
X135404126Y-44769433D01*
X135762312Y-44867290D01*
X136132706Y-44893389D01*
X136501075Y-44846725D01*
X136853262Y-44729094D01*
X137088086Y-44603577D01*
X137214000Y-44313605D01*
X136080000Y-43179605D01*
X134946000Y-44313605D01*
X132881807Y-44313605D01*
X132888072Y-44250000D01*
X132888072Y-43052706D01*
X134186611Y-43052706D01*
X134233275Y-43421075D01*
X134350906Y-43773262D01*
X134476423Y-44008086D01*
X134766395Y-44134000D01*
X135900395Y-43000000D01*
X136259605Y-43000000D01*
X137393605Y-44134000D01*
X137683577Y-44008086D01*
X137687613Y-44000000D01*
X144411928Y-44000000D01*
X144415000Y-44714250D01*
X144573750Y-44873000D01*
X145873000Y-44873000D01*
X145873000Y-43523750D01*
X146127000Y-43523750D01*
X146127000Y-44873000D01*
X146147000Y-44873000D01*
X146147000Y-45127000D01*
X146127000Y-45127000D01*
X146127000Y-46476250D01*
X146285750Y-46635000D01*
X146950000Y-46638072D01*
X147074482Y-46625812D01*
X147194180Y-46589502D01*
X147304494Y-46530537D01*
X147401185Y-46451185D01*
X147480537Y-46354494D01*
X147539502Y-46244180D01*
X147541123Y-46238836D01*
X147789221Y-46404609D01*
X148077673Y-46524089D01*
X148383891Y-46585000D01*
X148696109Y-46585000D01*
X149002327Y-46524089D01*
X149290779Y-46404609D01*
X149550379Y-46231150D01*
X149771150Y-46010379D01*
X149944609Y-45750779D01*
X150064089Y-45462327D01*
X150125000Y-45156109D01*
X150125000Y-44843891D01*
X150064089Y-44537673D01*
X149944609Y-44249221D01*
X149771150Y-43989621D01*
X149550379Y-43768850D01*
X149290779Y-43595391D01*
X149002327Y-43475911D01*
X148696109Y-43415000D01*
X148383891Y-43415000D01*
X148077673Y-43475911D01*
X147789221Y-43595391D01*
X147541123Y-43761164D01*
X147539502Y-43755820D01*
X147480537Y-43645506D01*
X147401185Y-43548815D01*
X147304494Y-43469463D01*
X147194180Y-43410498D01*
X147074482Y-43374188D01*
X146950000Y-43361928D01*
X146285750Y-43365000D01*
X146127000Y-43523750D01*
X145873000Y-43523750D01*
X145714250Y-43365000D01*
X145050000Y-43361928D01*
X144925518Y-43374188D01*
X144805820Y-43410498D01*
X144695506Y-43469463D01*
X144598815Y-43548815D01*
X144519463Y-43645506D01*
X144460498Y-43755820D01*
X144424188Y-43875518D01*
X144411928Y-44000000D01*
X137687613Y-44000000D01*
X137849433Y-43675874D01*
X137947290Y-43317688D01*
X137973389Y-42947294D01*
X137926725Y-42578925D01*
X137809094Y-42226738D01*
X137683577Y-41991914D01*
X137393605Y-41866000D01*
X136259605Y-43000000D01*
X135900395Y-43000000D01*
X134766395Y-41866000D01*
X134476423Y-41991914D01*
X134310567Y-42324126D01*
X134212710Y-42682312D01*
X134186611Y-43052706D01*
X132888072Y-43052706D01*
X132888072Y-41750000D01*
X132881808Y-41686395D01*
X134946000Y-41686395D01*
X136080000Y-42820395D01*
X137214000Y-41686395D01*
X137194716Y-41641984D01*
X153765000Y-41641984D01*
X153765000Y-42358016D01*
X153904691Y-43060290D01*
X154178705Y-43721818D01*
X154576511Y-44317177D01*
X155082823Y-44823489D01*
X155678182Y-45221295D01*
X156339710Y-45495309D01*
X157041984Y-45635000D01*
X157758016Y-45635000D01*
X158460290Y-45495309D01*
X159121818Y-45221295D01*
X159717177Y-44823489D01*
X160223489Y-44317177D01*
X160621295Y-43721818D01*
X160895309Y-43060290D01*
X161035000Y-42358016D01*
X161035000Y-41641984D01*
X160895309Y-40939710D01*
X160621295Y-40278182D01*
X160223489Y-39682823D01*
X159717177Y-39176511D01*
X159121818Y-38778705D01*
X158460290Y-38504691D01*
X157758016Y-38365000D01*
X157041984Y-38365000D01*
X156339710Y-38504691D01*
X155678182Y-38778705D01*
X155082823Y-39176511D01*
X154576511Y-39682823D01*
X154178705Y-40278182D01*
X153904691Y-40939710D01*
X153765000Y-41641984D01*
X137194716Y-41641984D01*
X137088086Y-41396423D01*
X136755874Y-41230567D01*
X136397688Y-41132710D01*
X136027294Y-41106611D01*
X135658925Y-41153275D01*
X135306738Y-41270906D01*
X135071914Y-41396423D01*
X134946000Y-41686395D01*
X132881808Y-41686395D01*
X132875812Y-41625518D01*
X132839502Y-41505820D01*
X132780537Y-41395506D01*
X132701185Y-41298815D01*
X132604494Y-41219463D01*
X132494180Y-41160498D01*
X132374482Y-41124188D01*
X132250000Y-41111928D01*
X129750000Y-41111928D01*
X129625518Y-41124188D01*
X129505820Y-41160498D01*
X129395506Y-41219463D01*
X129298815Y-41298815D01*
X129219463Y-41395506D01*
X129160498Y-41505820D01*
X129124188Y-41625518D01*
X129111928Y-41750000D01*
X112935000Y-41750000D01*
X112935000Y-41641984D01*
X112795309Y-40939710D01*
X112521295Y-40278182D01*
X112123489Y-39682823D01*
X111617177Y-39176511D01*
X111021818Y-38778705D01*
X110360290Y-38504691D01*
X109658016Y-38365000D01*
X108941984Y-38365000D01*
X108239710Y-38504691D01*
X107578182Y-38778705D01*
X106982823Y-39176511D01*
X106476511Y-39682823D01*
X106078705Y-40278182D01*
X105804691Y-40939710D01*
X105665000Y-41641984D01*
X105010000Y-41641984D01*
X105010000Y-38010000D01*
X161290001Y-38010000D01*
X161290001Y-38265115D01*
M02*
